<?xml version="1.0" encoding="UTF-8" standalone="no"?>
<svg
   id="a"
   viewBox="0 0 1920 527.61"
   version="1.1"
   xmlns="http://www.w3.org/2000/svg"
   xmlns:svg="http://www.w3.org/2000/svg"
   xmlns:rdf="http://www.w3.org/1999/02/22-rdf-syntax-ns#"
   xmlns:cc="http://creativecommons.org/ns#"
   xmlns:dc="http://purl.org/dc/elements/1.1/">
  <title
     id="title1">Snowbound, March 22nd, Shelburne, Vermont.</title>
  <defs
     id="defs2">
    <rect
       x="414.75177"
       y="319.43262"
       width="385.24823"
       height="167.37589"
       id="rect31" />
    <rect
       x="768.22695"
       y="557.7305"
       width="340.42553"
       height="89.078014"
       id="rect29" />
    <rect
       x="480"
       y="554.32624"
       width="407.37589"
       height="85.106383"
       id="rect27" />
    <clipPath
       id="b">
      <path
         class="h"
         d="m86.61 285.62 170.64-95 45.52 36.04 38.89-10.43 140.36 60.7 205.79-61.65 72.25 22.84 39.66-38.01 141.31 67.33 130.88-51.21 25.63 21.89 109.99-38.01 116.65 67.33 82.51-45.52 83.46 55.96 106.21-77.77 52.16 57.85 37.76-19.84 46.65 42.6 64.49-58.8 53.9 63.7"
         id="path1" />
    </clipPath>
    <clipPath
       id="c">
      <path
         class="h"
         d="M208.42 231.89c7.52 9.84 11.35 21.19 11.35 34.04 0 16.55-6.02 30.45-18.06 41.68s-26.86 16.9-44.34 16.9c-13.89 0-26.28-3.59-37.16-10.77-10.88-7.18-22-17.6-33.23-31.37L60.01 246.6l43.41-29.87-13.31-18.52c-11.92-11.92-17.83-25.35-17.83-40.29 0-16.32 6.14-30.1 18.29-41.21 12.16-11.11 26.86-16.67 44.11-16.67 9.15 0 18.64 2.08 28.48 6.25s18.64 9.96 26.51 17.37l25.12 35.54-32.99 35.08c2.43 3.01 4.63 6.37 6.6 9.96l20.03 27.67Zm-58.69-57.77c-.35-.12-1.97-1.04-4.86-2.66s-5.21-3.01-6.83-4.17-3.59-2.66-5.9-4.51-4.05-3.7-5.21-5.67-1.74-3.94-1.74-5.9c0-3.01.93-5.44 2.78-7.29s4.17-2.78 7.06-2.78c1.04 0 2.2.12 3.36.46s2.32.81 3.47 1.39 2.2 1.16 3.01 1.74 1.85 1.39 3.01 2.43 2.08 1.74 2.66 2.2 1.39 1.27 2.55 2.43l1.97 1.97 28.71-30.56c-13.43-12.62-29.52-18.99-48.39-18.99-15.86 0-29.41 5.09-40.75 15.28-11.35 10.19-17.02 22.81-17.02 37.86 0 19.8 11.69 36.58 35.08 50.48l5.79 3.13c3.59 2.2 6.37 4.05 8.34 5.44s4.51 3.24 7.52 5.67 5.33 4.86 6.83 7.41 2.32 4.98 2.32 7.41c0 3.36-1.27 6.02-3.82 7.99-2.55 1.97-5.56 2.89-9.03 2.89-2.66 0-5.21-.58-7.64-1.74s-4.63-2.89-6.71-5.21-3.7-4.28-4.98-6.02c-1.27-1.74-2.78-4.05-4.51-6.95-1.74-2.89-2.89-4.63-3.47-5.21l-35.77 24.89c9.61 12.16 19.45 21.42 29.52 27.67s21.65 9.38 34.73 9.38c16.44 0 30.33-5.33 41.68-15.86 6.9-6.41 11.7-13.71 14.41-21.92 1.74-5.29 2.61-10.95 2.61-16.98 0-12.16-3.82-22.92-11.35-32.3-7.52-9.38-17.13-17.37-28.83-23.85l-.58.46Zm-20.49 69.46c-6.6-4.75-12.5-10.07-17.6-15.98l8.57 12.04c2.66 2.55 5.67 3.82 9.03 3.82v.12Zm251.01-139.85 25.35 36.24v186.62h-10.42l-73.74-69.23v64.48h-58.81l-26.74-34.85V102.35h13.66l70.5 66.34v-64.95h60.2Zm-55.45 4.75v70.85l-77.1-72.24h-7.06v175.16h50.71v-69.92L370.77 287h4.75V108.49h-50.71Zm193.32-7.18c15.17 0 29.41 3.59 42.72 10.77 13.31 7.18 24.31 16.9 32.99 29.17l25.35 35.19c11.92 16.09 17.83 34.15 17.83 54.18 0 25.93-8.8 47.93-26.51 65.87-17.71 17.94-39.82 26.97-66.33 26.97-14.94 0-29.06-3.47-42.37-10.3-13.31-6.83-24.31-16.21-32.99-28.13l-26.86-35.43c-11.92-16.09-17.83-34.27-17.71-54.53 0-25.01 9.15-46.89 27.44-65.64s40.4-28.13 66.34-28.13h.11Zm-.11 4.75c-16.32 0-31.37 4.17-45.15 12.5-13.78 8.34-24.54 19.33-32.3 32.99-7.76 13.66-11.58 28.13-11.58 43.41 0 24.66 8.91 45.61 26.63 62.98 17.71 17.37 38.44 26.05 62.17 26.05 25.47 0 46.65-8.57 63.56-25.82 16.9-17.25 25.35-38.32 25.35-63.21s-8.92-45.61-26.74-62.98c-17.83-17.37-38.55-26.05-62.28-26.05l.35.12Zm-.35 141.01c-10.77 0-19.1-5.44-25.01-16.32-5.9-10.88-8.91-22.81-8.91-35.77s3.13-24.43 9.26-35.43c6.14-11 14.36-16.55 24.66-16.55 7.29 0 13.66 2.89 18.99 8.8 5.33 5.9 9.15 12.73 11.46 20.38 2.32 7.64 3.47 15.28 3.47 22.81 0 12.85-3.01 24.77-9.15 35.77-6.13 11-14.36 16.44-24.77 16.44v-.12Zm-2.78-4.86c6.83.93 12.73-1.16 17.83-6.14s8.8-11.11 11.11-18.41c2.32-7.29 3.47-14.82 3.47-22.57 0-3.36-.46-7.52-1.27-12.5-6.83 0-12.73 2.55-17.83 7.76-5.09 5.21-8.68 11.35-10.77 18.41-2.08 7.06-3.13 14.36-3.13 21.88 0 5.21.23 9.03.69 11.58h-.12Zm348.26-138.46 24.89 36.24-73.17 181.87H796.8L770.29 287l-5.21-12.39-18.75 47.23h-18.06l-26.51-34.85-73.98-183.26h64.95l25.58 36.24 5.67 14.7 20.61-50.94h16.67l25.58 36.24 5.67 14.7 20.61-50.94h50.01Zm-46.65 4.75-29.17 72.01-29.41-72.01h-9.96l-29.17 72.01-29.41-72.01h-54.53L705 282.26h12.39l28.02-69.69 28.13 69.69h12.39l70.16-173.77H816.5Zm80.42 178.98V104.2h65.18c7.52 0 14.7 1.85 21.53 5.56 6.83 3.7 12.62 8.68 17.37 15.05.46.46 1.04 1.27 1.85 2.43s3.36 4.86 7.76 11 9.72 13.43 15.86 22c6.14 8.57 9.26 17.83 9.26 27.78 0 5.67-1.16 11.69-3.59 17.94l12.85 17.37c8.22 11.23 12.27 23.39 12.27 36.47 0 16.9-6.02 31.37-18.06 43.41-12.04 12.04-26.63 18.41-43.88 18.99h-71.66l-26.74-34.73Zm102.34-112.76c4.05-7.06 6.14-14.47 6.25-22.23 0-11.92-4.4-22.23-13.08-30.79-8.68-8.57-18.75-12.85-30.22-12.85h-60.43v173.77h67.49c15.86-.58 29.52-6.6 40.87-17.94 11.35-11.35 17.02-24.89 17.02-40.52 0-9.61-2.43-18.75-7.29-27.44-4.86-8.68-11.69-16.09-20.61-22.11v.12Zm-41.21-32.3c5.21 0 7.87 4.75 7.87 14.24 0 3.94-.69 7.18-2.08 9.84-1.39 2.66-3.24 3.94-5.67 3.94h-5.9V142.3l5.79.12Zm-5.79 103.27v-51.05h6.83c4.75 0 8.8 2.43 12.27 7.29 3.47 4.86 5.21 10.88 5.21 18.06s-1.62 13.2-4.86 18.18-7.06 7.41-11.46 7.41l-7.99.12Zm201.24-144.36c15.17 0 29.41 3.59 42.72 10.77 13.31 7.18 24.31 16.9 32.99 29.17l25.35 35.19c11.92 16.09 17.83 34.15 17.83 54.18 0 25.93-8.8 47.93-26.51 65.87-17.71 17.94-39.82 26.97-66.34 26.97-14.93 0-29.06-3.47-42.37-10.3s-24.31-16.21-32.99-28.13l-26.86-35.43c-11.92-16.09-17.83-34.27-17.71-54.53 0-25.01 9.15-46.89 27.44-65.64s40.4-28.13 66.34-28.13h.12Zm-.12 4.75c-16.32 0-31.37 4.17-45.15 12.5-13.78 8.34-24.54 19.33-32.3 32.99-7.76 13.66-11.58 28.13-11.58 43.41 0 24.66 8.91 45.61 26.63 62.98 17.71 17.37 38.44 26.05 62.17 26.05 25.47 0 46.65-8.57 63.56-25.82 16.9-17.25 25.35-38.32 25.35-63.21s-8.91-45.61-26.74-62.98c-17.83-17.37-38.55-26.05-62.28-26.05l.35.12Zm-.35 141.01c-10.77 0-19.1-5.44-25.01-16.32-5.9-10.88-8.91-22.81-8.91-35.77s3.13-24.43 9.26-35.43c6.14-11 14.36-16.55 24.66-16.55 7.29 0 13.66 2.89 18.99 8.8 5.33 5.9 9.15 12.73 11.46 20.38 2.32 7.64 3.47 15.28 3.47 22.81 0 12.85-3.01 24.77-9.15 35.77-6.14 11-14.36 16.44-24.77 16.44v-.12Zm-2.78-4.86c6.83.93 12.73-1.16 17.83-6.14 5.09-4.98 8.8-11.11 11.11-18.41 2.32-7.29 3.47-14.82 3.47-22.57 0-3.36-.46-7.52-1.27-12.5-6.83 0-12.73 2.55-17.83 7.76-5.09 5.21-8.68 11.35-10.77 18.41-2.08 7.06-3.13 14.36-3.13 21.88 0 5.21.23 9.03.69 11.58h-.12Zm174.75 50.36c-17.83-23.27-26.86-35.08-26.97-35.43-7.29-10.3-11.46-21.53-12.5-33.69V103.75h60.2l25.47 36.24v94.35c2.2-2.66 3.47-5.79 3.7-9.38V103.87h53.37l25.35 36.24v119.01c-.93 16.79-8.34 31.6-22.11 44.46-13.78 12.85-29.52 19.22-47.23 19.22-11.69 0-22.81-2.66-33.34-7.99-10.53-5.33-19.22-12.73-26.05-22.11l.12-.12Zm54.64-183.84v116.35c-.12 5.21-2.08 9.72-5.79 13.43-3.7 3.7-8.22 5.56-13.66 5.56s-9.72-1.85-13.43-5.56c-3.7-3.7-5.67-8.22-5.79-13.43V108.74h-50.71v114.73c1.27 16.9 8.68 31.03 22.11 42.49s28.71 17.13 45.73 17.13 31.37-6.02 44.46-18.06c13.08-12.04 20.03-25.93 20.95-41.79V108.51l-43.88.23Zm242.38-4.98 25.35 36.24v186.62h-10.42l-73.74-69.23v64.48h-58.81l-26.74-34.85V102.35h13.66l70.5 66.34v-64.95h60.2Zm-55.45 4.75v70.85l-77.1-72.24h-7.06v175.16h50.71v-69.92l79.42 74.67h4.75V108.49h-50.71Zm172.61-4.51c14.01.35 27.21 3.59 39.48 9.72 12.27 6.14 22.81 14.47 31.49 25.01.81 1.04 1.97 2.55 3.47 4.63 1.5 2.08 4.51 6.25 8.91 12.5s9.84 13.78 16.32 22.46c11.58 15.63 17.37 33.23 17.25 52.79 0 15.63-3.94 30.45-11.92 44.34s-18.99 25.12-32.99 33.69c-14.01 8.57-29.29 12.85-45.84 12.85h-62.63l-26.74-34.85V103.85l63.21.12Zm-58.46 4.63V282.4h58.46c15.63 0 30.22-4.05 43.64-12.16 13.43-8.1 23.96-18.87 31.6-32.18 7.64-13.31 11.46-27.44 11.46-42.49 0-23.96-8.57-44.34-25.7-61.01-17.13-16.67-37.51-25.35-61.24-25.93h-58.23Zm50.48 138V144.41h5.21c9.96 0 18.41 5.09 25.35 15.4 6.95 10.3 10.42 22.23 10.42 35.77s-3.47 26.05-10.53 36-15.51 14.93-25.35 14.93l-5.09.12Zm30.33-23.39c4.05-8.22 6.14-17.37 6.14-27.55 0-4.05-.35-7.76-.93-11.11-2.2-.35-3.94-.46-5.21-.46v39.13Z"
         id="path2" />
    </clipPath>
    <style
       id="style2">.d,.e{fill:#fff}.e{fill-rule:evenodd}.h{fill:none}.j{fill:#6cf}</style>
  </defs>
  <path
     style="fill:#338eda;stroke-width:1.00729"
     d="M 0,0 H 1920 V 527.61 H 0 Z"
     id="path3" />
  <path
     class="e"
     d="M912.5 404.23c0-1.46-1.28-2.63-2.85-2.63s-2.85 1.18-2.85 2.63v6.89c-1.34-.89-2.49-1.92-4.23-3.5a2.855 2.855 0 0 0-4.39 3.65c1.79 1.95 5.32 5.3 8.61 6.75v35.64c-3.29 1.44-6.82 4.79-8.61 6.75a2.846 2.846 0 0 0 .37 4.02c1.21 1.01 3.01.84 4.02-.37 1.74-1.58 2.89-2.61 4.23-3.5v6.89c0 1.46 1.28 2.63 2.85 2.63s2.85-1.18 2.85-2.63v-6.89c1.34.89 2.48 1.92 4.23 3.5a2.855 2.855 0 0 0 4.02.37 2.864 2.864 0 0 0 .37-4.02c-1.79-1.95-5.32-5.3-8.61-6.75v-35.64c3.29-1.44 6.82-4.79 8.61-6.75a2.855 2.855 0 0 0-4.39-3.65c-1.75 1.58-2.89 2.61-4.23 3.5v-6.89Z"
     id="path21" />
  <path
     class="e"
     d="M938.45 422.51c1.26-.73 1.64-2.42.86-3.79-.79-1.36-2.45-1.88-3.71-1.15l-5.96 3.44c.1-1.61.42-3.11.92-5.41.55-1.48-.21-3.12-1.69-3.66s-3.12.22-3.66 1.7c-.8 2.53-1.94 7.26-1.54 10.83l-30.86 17.82c-2.9-2.13-7.56-3.51-10.15-4.08a2.85 2.85 0 0 0-3.3 2.33c-.27 1.55.77 3.03 2.33 3.3 2.24.72 3.7 1.19 5.15 1.91l-5.96 3.44c-1.26.73-1.64 2.42-.86 3.79.79 1.37 2.45 1.88 3.71 1.16l5.96-3.44c-.1 1.61-.42 3.11-.92 5.41-.54 1.48.21 3.12 1.7 3.66 1.48.54 3.12-.22 3.66-1.7.8-2.53 1.93-7.26 1.54-10.84l30.86-17.82c2.9 2.13 7.56 3.51 10.15 4.08 1.55.27 3.03-.77 3.3-2.33.27-1.55-.77-3.03-2.33-3.3-2.24-.72-3.7-1.19-5.15-1.91l5.96-3.44Z"
     id="path22" />
  <path
     class="e"
     d="M935.6 454.12c1.26.73 2.92.21 3.71-1.16.79-1.36.41-3.06-.85-3.79l-5.97-3.44c1.45-.72 2.91-1.19 5.15-1.91a2.864 2.864 0 0 0 2.33-3.3 2.862 2.862 0 0 0-3.3-2.33c-2.59.57-7.25 1.95-10.15 4.08l-30.86-17.82c.4-3.57-.74-8.3-1.54-10.83-.55-1.48-2.19-2.24-3.66-1.7-1.48.55-2.24 2.19-1.69 3.66.5 2.3.82 3.8.92 5.41l-5.96-3.44c-1.26-.73-2.92-.21-3.71 1.15-.79 1.37-.41 3.06.86 3.79l5.96 3.44c-1.44.72-2.91 1.19-5.15 1.91a2.864 2.864 0 0 0-2.33 3.3 2.862 2.862 0 0 0 3.3 2.33c2.59-.57 7.25-1.95 10.15-4.08l30.86 17.82c-.39 3.58.74 8.3 1.54 10.84a2.854 2.854 0 0 0 3.66 1.7c1.48-.55 2.24-2.19 1.69-3.66-.5-2.3-.82-3.8-.92-5.41l5.97 3.44Z"
     id="path23" />
  <g
     style="clip-path:url(#b);fill:none"
     clip-path="url(#b)"
     id="g24">
    <path
       class="d"
       style="fill:none;clip-path:url(#c)"
       d="M49.55 0h1820.89v474.19H49.55z"
       clip-path="url(#c)"
       id="path24" />
  </g>
  <path
     class="d"
     d="m98.87 276.57 91.45-49.63 1.49 56.63-57.85 2.84-30.35-1.9-4.74-7.94zm141.76-76.69 16.62-9.26 34.08 26.99v66.9h-50.7v-84.63zm65.1 25.99 35.93-9.64 33.84 14.63v54.76h-6.21l-63.56-59.75zm176.29 51.06 110.64-33.15v41.39H481.19l.83-8.24zm197-59.01 8.79-2.64 72.25 22.84 39.66-38.01 16.24 7.73v76.67h-43.72l-3.81-14.22h-5.69l-35.09 13.28h-24.66l-23.97-62.14v-3.51zm217.87 28.49 44.14 21.03 85.29-33.37v50.44H899.35l-2.46-38.1zm170.32-28.34 4.7-1.84 25.63 21.89 52.14-18.1v22.77h13.27l10.44-10.44 3.79-8.53 2.84-5.69 1.9-8.54 25.61-9.48 64.63 37.3-40.92 42.36-38.4 4.74h-75.19l-16.34-8.53-33.19-43.63-.91-14.28zm234.3 36.29 22.67 13.08 82.51-45.52 15.56 10.44 1.53 52.15H1320.2l-23.52-30.34 4.83.19zm180.88 18.31 7.76 5.21 42.94-31.45 21.02 38.08h-74.09l2.37-11.84zm71.1-41.17 42.87-31.39 20.9 23.17v62.34h-6.21l-57.56-54.12zm127.21 9.56 5.58-2.94 46.65 42.6 64.49-58.8 15.6 18.44v43.33h-134.93l2.61-42.63z"
     id="path25" />
  <path
     class="j"
     d="M208.42 231.89c7.52 9.84 11.35 21.19 11.35 34.04 0 16.56-6.02 30.45-18.06 41.68s-26.86 16.9-44.34 16.9c-13.89 0-26.28-3.59-37.16-10.77-10.88-7.18-22-17.6-33.23-31.37L60.01 246.6l43.41-29.87-13.31-18.52c-11.92-11.92-17.83-25.35-17.83-40.29 0-16.32 6.14-30.1 18.29-41.21 12.16-11.11 26.86-16.67 44.11-16.67 9.15 0 18.64 2.08 28.48 6.25s18.64 9.96 26.51 17.37l25.12 35.54-32.99 35.08c2.43 3.01 4.63 6.37 6.6 9.96l20.03 27.67Zm-58.69-57.77c-.35-.12-1.97-1.04-4.86-2.66-2.89-1.62-5.21-3.01-6.83-4.17s-3.59-2.66-5.9-4.52c-2.32-1.85-4.05-3.7-5.21-5.67-1.16-1.97-1.74-3.94-1.74-5.9 0-3.01.93-5.44 2.78-7.29 1.85-1.85 4.17-2.78 7.06-2.78 1.04 0 2.2.12 3.36.46s2.32.81 3.47 1.39c1.16.58 2.2 1.16 3.01 1.74.81.58 1.85 1.39 3.01 2.43 1.16 1.04 2.08 1.74 2.66 2.2.58.46 1.39 1.27 2.55 2.43l1.97 1.97 28.71-30.56c-13.43-12.62-29.52-18.99-48.39-18.99-15.86 0-29.41 5.09-40.75 15.28s-17.02 22.81-17.02 37.86c0 19.8 11.69 36.58 35.08 50.48l5.79 3.13c3.59 2.2 6.37 4.05 8.34 5.44 1.97 1.39 4.51 3.24 7.52 5.67 3.01 2.43 5.33 4.86 6.83 7.41 1.51 2.55 2.32 4.98 2.32 7.41 0 3.36-1.27 6.02-3.82 7.99s-5.56 2.89-9.03 2.89c-2.66 0-5.21-.58-7.64-1.74-2.43-1.16-4.63-2.89-6.71-5.21-2.08-2.31-3.7-4.28-4.98-6.02-1.27-1.74-2.78-4.05-4.51-6.95-1.74-2.89-2.89-4.63-3.47-5.21l-35.77 24.89c9.61 12.16 19.45 21.42 29.52 27.67s21.65 9.38 34.73 9.38c16.44 0 30.33-5.33 41.68-15.86 11.35-10.53 17.02-23.5 17.02-38.9 0-12.16-3.82-22.92-11.35-32.3-7.52-9.38-17.13-17.37-28.83-23.85l-.58.46Zm-20.49 69.46c-6.6-4.75-12.5-10.07-17.6-15.98l8.57 12.04c2.66 2.55 5.67 3.82 9.03 3.82v.12Zm251-139.84 25.35 36.24V326.6h-10.42l-73.74-69.23v64.48h-58.81L235.88 287V102.35h13.66l70.5 66.34v-64.95h60.2Zm-55.45 4.75v70.85l-77.1-72.24h-7.06v175.16h50.71v-69.92l79.42 74.67h4.75V108.48H324.8Zm193.32-7.18c15.17 0 29.41 3.59 42.72 10.77 13.31 7.18 24.31 16.9 32.99 29.17l25.35 35.19c11.92 16.09 17.83 34.15 17.83 54.18 0 25.93-8.8 47.93-26.51 65.87s-39.82 26.97-66.34 26.97c-14.93 0-29.06-3.47-42.37-10.3s-24.31-16.21-32.99-28.13l-26.86-35.43c-11.92-16.09-17.83-34.27-17.71-54.53 0-25.01 9.15-46.89 27.44-65.64s40.4-28.13 66.34-28.13h.12Zm-.12 4.75c-16.32 0-31.37 4.17-45.15 12.5-13.78 8.34-24.54 19.33-32.3 32.99-7.76 13.66-11.58 28.13-11.58 43.41 0 24.66 8.91 45.61 26.63 62.98 17.71 17.37 38.44 26.05 62.17 26.05 25.47 0 46.65-8.57 63.56-25.82 16.9-17.25 25.35-38.32 25.35-63.21s-8.91-45.61-26.74-62.98c-17.83-17.37-38.55-26.05-62.28-26.05l.35.12Zm-.35 141.01c-10.77 0-19.1-5.44-25.01-16.32-5.9-10.88-8.91-22.81-8.91-35.77s3.13-24.43 9.26-35.42S507.33 143 517.64 143c7.29 0 13.66 2.89 18.99 8.8 5.33 5.9 9.15 12.73 11.46 20.38 2.32 7.64 3.47 15.28 3.47 22.81 0 12.85-3.01 24.77-9.15 35.77s-14.36 16.44-24.77 16.44v-.12Zm-2.78-4.86c6.83.93 12.73-1.16 17.83-6.14s8.8-11.11 11.11-18.41 3.47-14.82 3.47-22.58c0-3.36-.46-7.52-1.27-12.5-6.83 0-12.73 2.55-17.83 7.76-5.09 5.21-8.68 11.35-10.77 18.41-2.08 7.06-3.13 14.36-3.13 21.88 0 5.21.23 9.03.69 11.58h-.12Zm348.27-138.47 24.89 36.24-73.17 181.87h-18.06L770.28 287l-5.21-12.39-18.75 47.23h-18.06l-26.51-34.85-73.98-183.26h64.95l25.58 36.24 5.67 14.7 20.61-50.94h16.67l25.58 36.24 5.67 14.7 20.61-50.94h50.01Zm-46.65 4.75-29.17 72.01-29.41-72.01h-9.96l-29.17 72.01-29.41-72.01h-54.53l70.16 173.77h12.39l28.02-69.69 28.13 69.69h12.39l70.16-173.77h-39.59Zm80.41 178.97V104.2h65.18c7.53 0 14.7 1.85 21.53 5.56s12.62 8.68 17.37 15.05c.46.46 1.04 1.27 1.85 2.43.81 1.16 3.36 4.86 7.76 11s9.72 13.43 15.86 22 9.26 17.83 9.26 27.78c0 5.67-1.16 11.69-3.59 17.94l12.85 17.37c8.22 11.23 12.27 23.39 12.27 36.47 0 16.9-6.02 31.37-18.06 43.41-12.04 12.04-26.63 18.41-43.88 18.99h-71.66l-26.74-34.73ZM999.23 174.7c4.05-7.06 6.14-14.47 6.25-22.23 0-11.92-4.4-22.23-13.08-30.79s-18.75-12.85-30.21-12.85h-60.43V282.6h67.49c15.86-.58 29.52-6.6 40.87-17.94 11.35-11.35 17.02-24.89 17.02-40.52 0-9.61-2.43-18.75-7.29-27.44s-11.69-16.09-20.61-22.11v.12Zm-41.21-32.3c5.21 0 7.87 4.75 7.87 14.24 0 3.94-.69 7.18-2.08 9.84-1.39 2.66-3.24 3.94-5.67 3.94h-5.9v-28.13l5.79.12Zm-5.79 103.27v-51.05h6.83c4.75 0 8.8 2.43 12.27 7.29 3.47 4.86 5.21 10.88 5.21 18.06s-1.62 13.2-4.86 18.18-7.06 7.41-11.46 7.41l-7.99.12Zm201.24-144.36c15.17 0 29.4 3.59 42.72 10.77s24.31 16.9 32.99 29.17l25.35 35.19c11.92 16.09 17.83 34.15 17.83 54.18 0 25.93-8.8 47.93-26.51 65.87s-39.82 26.97-66.33 26.97c-14.93 0-29.06-3.47-42.37-10.3-13.31-6.83-24.31-16.21-32.99-28.13l-26.86-35.43c-11.92-16.09-17.83-34.27-17.71-54.53 0-25.01 9.15-46.89 27.44-65.64s40.4-28.13 66.33-28.13h.12Zm-.12 4.75c-16.32 0-31.37 4.17-45.15 12.5-13.78 8.34-24.54 19.33-32.3 32.99-7.76 13.66-11.58 28.13-11.58 43.41 0 24.66 8.92 45.61 26.63 62.98 17.71 17.37 38.44 26.05 62.17 26.05 25.47 0 46.65-8.57 63.56-25.82 16.9-17.25 25.35-38.32 25.35-63.21s-8.91-45.61-26.74-62.98c-17.83-17.37-38.55-26.05-62.28-26.05l.35.12Zm-.35 141.01c-10.77 0-19.1-5.44-25.01-16.32s-8.91-22.81-8.91-35.77 3.13-24.43 9.26-35.42S1142.7 143 1153 143c7.29 0 13.66 2.89 18.99 8.8 5.33 5.9 9.15 12.73 11.46 20.38s3.47 15.28 3.47 22.81c0 12.85-3.01 24.77-9.15 35.77s-14.35 16.44-24.77 16.44v-.12Zm-2.78-4.86c6.83.93 12.73-1.16 17.83-6.14 5.09-4.98 8.8-11.11 11.11-18.41s3.47-14.82 3.47-22.58c0-3.36-.46-7.52-1.27-12.5-6.83 0-12.73 2.55-17.83 7.76-5.09 5.21-8.68 11.35-10.77 18.41-2.08 7.06-3.12 14.36-3.12 21.88 0 5.21.23 9.03.69 11.58h-.12Zm174.76 50.35c-17.83-23.27-26.86-35.08-26.97-35.43-7.29-10.3-11.46-21.53-12.5-33.69v-119.7h60.2l25.47 36.24v94.35c2.2-2.66 3.47-5.79 3.7-9.38V103.86h53.37l25.35 36.24v119.01c-.93 16.79-8.33 31.6-22.11 44.46-13.78 12.85-29.52 19.22-47.23 19.22-11.69 0-22.81-2.66-33.34-7.99-10.54-5.32-19.22-12.73-26.05-22.11l.12-.12Zm54.64-183.84v116.35c-.12 5.21-2.08 9.72-5.79 13.43-3.7 3.7-8.22 5.56-13.66 5.56s-9.72-1.85-13.43-5.56c-3.7-3.7-5.67-8.22-5.79-13.43V108.72h-50.71v114.73c1.27 16.9 8.68 31.03 22.11 42.49s28.71 17.13 45.73 17.13 31.37-6.02 44.46-18.06c13.08-12.04 20.03-25.93 20.95-41.79V108.49l-43.88.23Zm242.38-4.98 25.35 36.24V326.6h-10.42l-73.74-69.23v64.48h-58.81L1477.64 287V102.35h13.66l70.5 66.34v-64.95h60.2Zm-55.45 4.75v70.85l-77.1-72.24h-7.06v175.16h50.71v-69.92l79.42 74.67h4.75V108.48h-50.71Zm172.61-4.52c14.01.35 27.21 3.59 39.48 9.72s22.81 14.47 31.49 25.01c.81 1.04 1.97 2.55 3.47 4.63 1.5 2.08 4.51 6.25 8.91 12.5s9.84 13.78 16.32 22.46c11.58 15.63 17.37 33.23 17.25 52.79 0 15.63-3.94 30.45-11.92 44.34-7.99 13.89-18.99 25.12-32.99 33.69-14.01 8.57-29.29 12.85-45.84 12.85h-62.63l-26.74-34.85V103.85l63.21.12Zm-58.46 4.63v173.77h58.46c15.63 0 30.22-4.05 43.64-12.16 13.43-8.1 23.96-18.87 31.61-32.18 7.64-13.31 11.46-27.44 11.46-42.49 0-23.96-8.57-44.34-25.7-61.01-17.13-16.67-37.51-25.35-61.24-25.93h-58.23Zm50.47 138V144.38h5.21c9.96 0 18.41 5.09 25.35 15.4 6.95 10.3 10.42 22.23 10.42 35.77s-3.47 26.05-10.54 36-15.51 14.93-25.35 14.93l-5.09.12Zm30.33-23.39c4.05-8.22 6.14-17.37 6.14-27.55 0-4.05-.35-7.76-.93-11.11-2.2-.35-3.94-.46-5.21-.46v39.13Z"
     id="path26" />
  <path
     class="j"
     d="m369.29 285.62 1.46 1.38h4.75v-1.38h-6.21zm1241.76 0 1.46 1.38h4.75v-1.38h-6.21z"
     id="path27" />
  <g
     id="text30-6-2"
     style="font-size:85.3333px;line-height:0;font-family:'Fonseca Script';-inkscape-font-specification:'Fonseca Script, Normal';fill:#222222;stroke:#e824ef;stroke-width:0"
     aria-label="March 22nd">
    <path
       style="fill:#ffffff;stroke:#ffffff"
       d="m 492.02201,396.72762 c -1.70666,0 -5.46133,1.10933 -6.57066,3.07199 -16.384,23.296 -33.79199,55.21065 -38.31465,55.21065 -4.26667,0 -2.21867,-23.89332 -2.56,-36.01065 -0.59734,-15.36 -5.20533,-23.63733 -12.37333,-23.63733 -5.12,0 -5.12,2.56 -6.05866,4.43733 -5.12,10.66667 -16.04266,73.30131 -30.63466,73.30131 -2.304,0 -3.92533,-1.62134 -3.584,-3.66933 0.93867,-4.352 -6.82666,-4.01067 -7.76533,0.93866 -0.93866,4.52267 2.90133,9.04533 9.04533,9.04533 25.00266,0 31.74399,-53.16264 39.93599,-66.81597 0.42666,2.64533 0.85333,5.80266 0.93866,10.15466 2.38933,17.66399 -2.73066,41.47198 10.83733,41.47198 7.168,0 24.40532,-32.08532 38.48532,-52.99197 -16.04266,50.85864 -16.384,54.18664 -16.72533,55.12531 -0.768,2.816 -1.28,5.20533 -1.36533,7.50933 0,3.75466 0.68267,7.50933 4.864,7.50933 2.73066,0 -0.512,-1.87734 4.01066,-14.67733 7.50933,-21.67466 14.592,-40.10665 21.84533,-61.69597 1.70666,-5.12 -0.68267,-8.27733 -4.01067,-8.27733 z m 24.14931,50.77331 c 3.072,1.19466 4.94933,-1.87733 5.20533,-3.072 0.256,-1.10933 -1.36533,-6.4 -9.81333,-6.4 -8.53333,0 -19.79732,7.168 -26.19732,17.15199 -5.20533,8.36267 -6.22933,16.98133 2.816,18.34666 8.36266,1.36534 14.16532,-7.16799 17.57866,-11.43466 -0.42667,1.87733 -0.512,3.584 -0.34134,5.20533 0.256,2.64534 1.62134,5.20533 5.632,5.20533 5.888,0 9.472,-4.69333 13.14133,-10.23999 4.01066,-6.48533 4.608,-9.38666 3.24266,-9.38666 -1.45066,0 -3.07199,2.64533 -5.37599,6.05866 -2.21867,3.41333 -5.376,8.02133 -9.728,8.02133 -3.15733,0 0.17067,-6.4 1.792,-11.60533 1.62133,-5.03466 -4.52267,-3.328 -9.13066,2.13333 -2.73067,3.15734 -6.57067,9.472 -11.264,9.472 -4.01066,0 -2.56,-5.888 1.28,-12.03199 3.84,-6.144 11.86133,-11.52 15.95733,-11.52 4.01066,0 3.328,3.41333 5.20533,4.096 z m 32.59724,-9.55733 c -4.18133,0 -7.93599,4.18133 -10.83732,7.08266 0.42666,-0.93866 0.68266,-1.96266 1.27999,-3.072 2.304,-6.22933 -1.70666,-2.90133 -5.63199,-2.90133 -3.49867,0 -4.26667,2.90133 -5.12,5.54667 -5.03467,13.39732 -8.192,21.41865 -8.87466,26.62398 -0.34134,1.792 -0.0853,2.64534 0.68266,2.64534 5.12,0 8.27733,-9.38667 12.37333,-19.02933 4.01067,-7.25333 8.192,-10.15466 10.58133,-10.15466 1.96267,0 -0.0853,3.92533 -1.87733,8.27733 -0.59734,1.28 0,2.38933 1.36533,2.38933 3.66933,0 9.64266,-6.912 10.32533,-11.34933 0.59733,-3.84 -1.28,-6.05866 -4.26667,-6.05866 z m 24.74663,14.07999 c -0.256,0.768 0.512,2.38934 2.90134,2.38934 2.64533,0 7.59466,-2.816 8.95999,-7.85067 0.68267,-1.792 0.93867,-9.81333 -6.82666,-9.81333 -8.36267,0 -20.47999,7.76533 -26.11199,18.85866 -6.57067,12.97066 2.64533,18.17599 11.94666,18.17599 6.4,0 16.04266,-4.86399 22.18666,-12.37332 5.03466,-6.144 5.46133,-9.38667 4.096,-9.38667 -1.45067,0 -2.816,2.73067 -5.80267,6.05867 -5.54666,6.22933 -14.59199,9.72799 -18.26132,9.72799 -5.888,0 -9.04533,-3.66933 -5.376,-11.60533 2.304,-5.46133 11.43466,-14.07999 15.53066,-14.07999 2.048,0 2.47466,1.96267 1.10933,4.352 -1.36533,2.56 -3.92533,3.49866 -4.352,5.54666 z"
       id="path4" />
    <path
       style="font-size:74.6667px;fill:#ffffff;stroke:#ffffff"
       d="m 620.35247,458.10358 c -1.568,1.568 -8.13867,11.2 -10.528,11.2 -2.688,0 -0.74667,-2.09067 3.21066,-11.79734 2.76267,-7.01867 8.21334,-18.51734 -2.912,-16.42667 -4.33067,0.82133 -9.856,7.46667 -14.26134,13.14134 4.85334,-11.49867 16.87468,-42.33602 19.26401,-46.59202 2.24,-4.25601 -2.16533,-2.24001 -5.00267,-2.24001 -2.31466,0 -3.50933,1.86667 -4.33067,3.88267 -0.59733,1.71734 -12.17067,31.43468 -16.05334,43.30669 -4.18133,11.72267 -7.91467,20.30934 -5.97333,20.30934 2.912,0 4.48,-1.94133 6.19733,-4.85333 5.67467,-6.86934 15.15734,-20.53335 17.02401,-20.53335 3.28534,0 -3.136,12.24534 -5.30133,17.47201 -2.01601,5.07734 0.37333,8.96001 5.97333,8.96001 5.824,0 12.61867,-11.94668 14.41068,-14.48534 1.792,-2.61334 -0.0747,-2.98667 -1.71734,-1.344 z"
       id="path5" />
    <path
       style="font-size:80px;fill:#ffffff;stroke:#ffffff"
       d="m 699.56302,431.94358 c 7.04,-13.04 2,-28.32 -10.8,-28.32 -15.76,0 -28.08,13.28 -32.8,25.44 -2.96,7.28 -1.76,12.48 4.24,12.48 2.48,0 4.56,-2.24 4.88,-3.84 0.4,-2.48 -0.96,-4.32 0.72,-9.2 2.96,-8.88 12.8,-16.96 20,-16.96 10.4,0 7.68,12.32 2.32,22 -7.44,13.68 -21.28,20.16 -41.76,31.44 -1.52,1.04 -2.64,2.08 -2.72,2.96 -0.24,0.88 0.16,2.4 0.56,2.96 0.64,0.56 2.08,0.8 3.92,-0.08 2.96,-1.36 8.72,-2.4 15.36,-0.48 8.56,2.8 13.6,3.92 17.36,3.92 5.52,0 9.04,-3.2 9.36,-6.48 0.24,-2.96 -4.08,-0.4 -17.6,-3.6 -2.88,-0.64 -5.44,-1.12 -7.6,-1.44 12.72,-6.8 26.72,-16.32 34.56,-30.8 z m 51.28006,0 c 7.04,-13.04 2,-28.32 -10.8,-28.32 -15.76,0 -28.08,13.28 -32.8,25.44 -2.96,7.28 -1.76,12.48 4.24,12.48 2.48,0 4.56,-2.24 4.88,-3.84 0.4,-2.48 -0.96,-4.32 0.72,-9.2 2.96,-8.88 12.8,-16.96 20,-16.96 10.4,0 7.68,12.32 2.32,22 -7.44,13.68 -21.28,20.16 -41.76,31.44 -1.52,1.04 -2.64,2.08 -2.72,2.96 -0.24,0.88 0.16,2.4 0.56,2.96 0.64,0.56 2.08,0.8 3.92,-0.08 2.96,-1.36 8.72,-2.4 15.36,-0.48 8.56,2.8 13.6,3.92 17.36,3.92 5.52,0 9.04,-3.2 9.36,-6.48 0.24,-2.96 -4.08,-0.4 -17.6,-3.6 -2.88,-0.64 -5.44,-1.12 -7.6,-1.44 12.72,-6.8 26.72,-16.32 34.56,-30.8 z"
       id="path6" />
    <path
       style="fill:#ffffff;stroke:#ffffff"
       d="m 785.96313,457.65559 c -1.792,1.792 -8.448,11.264 -11.17867,11.264 -2.73066,0 -1.70666,-1.19467 3.072,-11.94667 3.41333,-7.59466 8.96,-20.56532 -3.24266,-18.17599 -6.656,1.36533 -16.384,15.36 -20.30933,21.16266 2.64533,-5.46133 5.97333,-11.008 8.27733,-16.46933 2.304,-5.80266 -1.28,-4.43733 -5.03466,-4.43733 -3.328,0 -4.18133,3.75467 -5.29067,6.4 -2.47466,5.632 -7.85066,20.22399 -9.21599,25.94132 -0.42667,1.62133 0.0853,2.64533 1.024,2.64533 2.304,0 3.92533,-0.256 6.05866,-2.56 4.01067,-4.35199 18.60266,-25.51465 20.99199,-25.51465 3.92533,0 -3.24266,12.37333 -5.29066,18.17599 -2.38933,5.80267 0,9.89866 6.22933,9.89866 7.76533,0 13.22666,-12.11732 15.35999,-14.93332 2.048,-2.73067 0.34134,-3.41334 -1.45066,-1.45067 z m 49.49333,-4.77866 c -1.45067,0 -3.84,2.64533 -6.144,6.05866 -2.304,3.41333 -6.05867,8.02133 -9.81333,8.02133 -3.41333,0 -1.96267,-3.584 -0.59733,-7.59466 4.01066,-8.53333 21.33332,-53.67465 25.34398,-61.18398 2.56,-4.864 -2.55999,-2.56 -5.63199,-2.56 -2.73067,0 -4.096,2.13334 -5.03467,4.43733 -0.68266,1.62134 -10.41066,27.56266 -16.12799,43.09332 -0.93867,-2.048 -2.13333,-4.864 -8.36266,-4.864 -8.53333,0 -17.23733,7.168 -22.69866,17.15199 -4.352,8.36267 -4.43733,16.98133 4.864,18.34666 7.76533,1.10934 14.93332,-6.22933 20.05332,-12.71466 -1.536,4.94933 -0.85333,11.43466 5.03467,11.43466 6.14399,0 10.75199,-4.09599 14.93332,-10.23999 4.26667,-6.22933 5.632,-9.38666 4.18134,-9.38666 z m -39.50932,14.33599 c -3.84,0 -2.98667,-5.888 0.17066,-12.032 3.15734,-6.14399 8.78933,-11.51999 12.88533,-11.51999 4.096,0 2.048,3.41333 4.096,4.096 0.93867,0.42666 1.87733,0.34133 2.816,-0.0853 l -0.93867,2.47467 c -6.82666,12.544 -14.67732,17.06666 -19.02932,17.06666 z"
       id="path7" />
  </g>
  <g
     id="text30-6-5-2"
     style="font-size:85.3333px;line-height:0;font-family:'Fonseca Script';-inkscape-font-specification:'Fonseca Script, Normal';fill:#222222;stroke:#e824ef;stroke-width:0"
     aria-label="Shelburne, Vermont">
    <path
       style="font-size:72px;fill:#ffffff;fill-opacity:0;stroke:#ffffff"
       d="m 1012.5552,432.6716 c -0.504,2.232 1.368,2.592 4.176,2.592 2.88,0 11.232,-2.736 12.96,-11.952 2.52,-12.672 -9.936,-18.936 -21.816,-18.576 -12.38397,0.36 -27.43197,10.008 -29.95197,22.392 -2.16,11.016 3.888,18.072 16.2,24.768 3.6,2.088 13.24797,6.768 12.09597,12.312 -1.728,8.568 -9.35997,13.464 -17.56797,13.464 -3.168,0 -5.76,-1.512 -4.248,-4.608 1.368,-2.664 4.896,-6.12 8.928,-8.928 6.552,-4.608 12.02397,-10.224 1.944,-5.544 -5.976,2.592 -16.272,9.648 -17.568,16.416 -0.936,5.184 3.384,8.424 7.848,8.424 11.808,0 26.27997,-7.416 28.79997,-19.728 1.368,-7.56 -4.032,-11.952 -13.896,-17.928 -7.48797,-4.392 -16.48797,-7.704 -14.39997,-19.008 1.728,-8.64 11.952,-16.992 20.87997,-16.992 10.44,0 15.84,5.832 14.112,14.832 -1.152,6.12 -7.92,5.76 -8.496,8.064 z"
       id="path8" />
    <path
       style="fill:#ffffff;stroke:#ffffff"
       d="m 1058.4592,455.86361 c -1.792,1.792 -9.3013,12.79999 -12.032,12.79999 -3.072,0 -0.8533,-2.38933 3.6693,-13.48266 3.1574,-8.02133 9.3867,-21.16266 -3.328,-18.77332 -4.9493,0.93866 -11.264,8.53333 -16.2986,15.01866 5.5466,-13.14133 19.2853,-48.38398 22.016,-53.24798 2.56,-4.864 -2.4747,-2.56 -5.7174,-2.56 -2.6453,0 -4.0106,2.13333 -4.9493,4.43733 -0.6827,1.96267 -13.9093,35.92532 -18.3467,49.49331 -4.7786,13.39733 -9.0453,23.21066 -6.8266,23.21066 3.328,0 5.12,-2.21867 7.0826,-5.54666 6.4854,-7.85067 17.3227,-23.46666 19.456,-23.46666 3.7547,0 -3.584,13.99466 -6.0586,19.96799 -2.304,5.80266 0.4266,10.24 6.8266,10.24 6.656,0 14.4214,-13.65333 16.4693,-16.55466 2.048,-2.98667 -0.085,-3.41334 -1.9626,-1.536 z m 34.2186,-3.328 c -1.4507,0 -3.072,2.816 -5.7173,6.144 -8.6187,9.89866 -17.7494,10.41066 -20.992,7.16799 -2.1334,-1.96266 -3.4987,-4.94933 -1.536,-9.30133 1.7066,1.28 2.9866,1.87734 5.4613,1.62134 6.5707,0 14.848,-6.99733 16.4693,-12.88533 1.3654,-5.46133 -3.6693,-8.53333 -9.5573,-7.424 -7.0827,1.36533 -13.6533,5.888 -18.688,15.78666 -4.352,8.96 -3.9253,16.04266 4.2667,19.19999 7.168,2.73067 17.408,0.34134 26.2826,-10.83733 5.0347,-6.22933 5.376,-9.47199 4.0107,-9.47199 z m -13.9947,-9.30133 c 1.6214,0.256 1.024,3.072 -0.8533,4.77866 -2.4747,2.816 -5.888,4.77867 -8.0213,4.18134 -1.4507,-0.42667 -1.4507,-1.536 0,-3.24267 3.328,-3.66933 5.888,-5.03466 8.8746,-5.71733 z"
       id="path9" />
    <path
       style="font-size:74.6667px;fill:#ffffff;stroke:#ffffff"
       d="m 1109.0619,456.68493 c -1.2694,0 -3.36,2.31466 -5.3761,5.30133 -2.016,2.98667 -5.4506,7.01867 -8.5866,7.01867 -2.9867,0 -2.3894,-3.136 -1.1947,-6.64534 0.5227,-1.19466 0.896,-2.38933 2.016,-4.77866 26.0587,-35.76535 29.4187,-55.02936 23.8187,-55.02936 -6.6453,0 -13.0667,10.45333 -18.6667,25.16267 -2.3893,6.57067 -7.84,20.90668 -9.632,26.05868 -0.9707,2.38934 -3.5093,10.15468 -3.7333,10.97601 -0.3734,1.86667 -0.5227,3.36 -0.2987,4.55467 0.224,2.31467 1.4187,4.55467 4.928,4.55467 5.376,0 9.408,-3.58401 13.0667,-8.96001 3.7333,-5.45067 4.928,-8.21333 3.6587,-8.21333 z m 8.064,-45.92003 c 1.1946,0 -1.6427,11.12534 -17.5467,38.00535 1.792,-4.256 8.5867,-20.90667 10.3787,-25.76001 1.1946,-3.21067 4.8533,-12.24534 7.168,-12.24534 z"
       id="path10" />
    <path
       style="font-size:76px;fill:#ffffff;stroke:#ffffff"
       d="m 1134.6925,442.2436 c -6.46,-0.836 -13.908,4.788 -18.544,10.26 5.168,-12.54 16.872,-41.8 19,-46.056 2.28,-4.332 -2.204,-2.28 -5.092,-2.28 -2.356,0 -3.572,1.9 -4.408,3.952 -0.608,1.824 -12.16,32.072 -16.34,44.08 -4.256,11.932 -8.056,20.672 -6.08,20.672 2.66,0 4.408,-1.9 6.156,-4.636 0,1.216 2.128,5.7 9.348,5.7 7.448,0 15.656,-6.46 20.14,-15.352 3.876,-7.524 4.18,-15.124 -4.18,-16.34 z m -4.332,16.568 c -2.812,5.472 -7.904,10.26 -11.476,10.26 -3.724,0 -3.42,-3.04 -5.168,-3.648 -1.444,-0.532 -2.356,-0.076 -3.04,0.532 6.08,-13.148 15.504,-17.86 19.684,-17.86 3.648,0 2.812,5.244 0,10.716 z"
       id="path11" />
    <path
       style="fill:#ffffff;stroke:#ffffff"
       d="m 1178.8458,455.77827 c -1.8773,1.87734 -9.472,12.8 -12.1173,12.8 -2.9013,0 5.888,-19.11466 9.6427,-26.28266 2.7306,-5.11999 -2.3894,-3.24266 -5.8027,-3.24266 -2.304,0.0853 -2.9867,1.10933 -3.584,2.56 -0.256,0.34133 -0.3413,0.59733 -0.4267,0.85333 -5.2053,13.90933 -12.288,26.11199 -18.432,26.11199 -4.1813,0 2.6454,-12.62933 8.5334,-24.66132 2.56,-5.03467 -1.7067,-5.29067 -5.4614,-4.608 -3.072,0.42666 -3.584,2.38933 -4.5226,4.77866 -1.792,4.26667 -5.2907,13.22666 -6.912,19.54133 -1.6214,5.88799 -0.768,10.23999 5.5466,10.23999 4.864,0 8.704,-2.816 12.3734,-8.27733 -1.28,4.77867 0.4266,8.27733 6.2293,8.27733 7.8507,0 14.5067,-13.56799 16.8107,-16.55466 2.304,-2.98666 -0.256,-3.41333 -1.8774,-1.536 z m 24.5761,-17.83466 c -4.1814,0 -7.936,4.18134 -10.8374,7.08267 0.4267,-0.93867 0.6827,-1.96267 1.28,-3.072 2.304,-6.22933 -1.7066,-2.90133 -5.632,-2.90133 -3.4986,0 -4.2666,2.90133 -5.12,5.54666 -5.0346,13.39733 -8.192,21.41866 -8.8746,26.62399 -0.3414,1.792 -0.085,2.64533 0.6826,2.64533 5.12,0 8.2774,-9.38666 12.3734,-19.02932 4.0106,-7.25333 8.192,-10.15466 10.5813,-10.15466 1.9627,0 -0.085,3.92533 -1.8773,8.27733 -0.5974,1.27999 0,2.38933 1.3653,2.38933 3.6693,0 9.6427,-6.912 10.3253,-11.34933 0.5974,-3.84 -1.28,-6.05867 -4.2666,-6.05867 z m 40.3626,19.712 c -1.792,1.792 -8.448,11.26399 -11.1787,11.26399 -2.7306,0 -1.7066,-1.19466 3.072,-11.94666 3.4134,-7.59466 8.96,-20.56532 -3.2426,-18.17599 -6.656,1.36533 -16.384,15.35999 -20.3094,21.16266 2.6454,-5.46134 5.9734,-11.008 8.2774,-16.46933 2.304,-5.80267 -1.28,-4.43733 -5.0347,-4.43733 -3.328,0 -4.1813,3.75466 -5.2907,6.4 -2.4746,5.63199 -7.8506,20.22399 -9.216,25.94132 -0.4266,1.62133 0.085,2.64533 1.024,2.64533 2.304,0 3.9254,-0.256 6.0587,-2.56 4.0107,-4.352 18.6027,-25.51466 20.992,-25.51466 3.9253,0 -3.2427,12.37333 -5.2907,18.176 -2.3893,5.80266 0,9.89866 6.2294,9.89866 7.7653,0 13.2266,-12.11733 15.36,-14.93333 2.048,-2.73066 0.3413,-3.41333 -1.4507,-1.45066 z m 35.1573,-5.12 c -1.4506,0 -3.072,2.816 -5.7173,6.144 -8.6187,9.89866 -17.7493,10.41066 -20.992,7.16799 -2.1333,-1.96266 -3.4986,-4.94933 -1.536,-9.30133 1.7067,1.28 2.9867,1.87734 5.4614,1.62134 6.5706,0 14.8479,-6.99733 16.4693,-12.88533 1.3653,-5.46133 -3.6694,-8.53333 -9.5574,-7.424 -7.0826,1.36533 -13.6533,5.888 -18.6879,15.78666 -4.352,8.96 -3.9254,16.04266 4.2666,19.19999 7.168,2.73067 17.408,0.34134 26.2827,-10.83733 5.0346,-6.22933 5.376,-9.47199 4.0106,-9.47199 z m -13.9946,-9.30133 c 1.6213,0.256 1.024,3.072 -0.8534,4.77866 -2.4746,2.816 -5.8879,4.77867 -8.0213,4.18134 -1.4506,-0.42667 -1.4506,-1.536 0,-3.24267 3.328,-3.66933 5.888,-5.03466 8.8747,-5.71733 z m 20.8213,23.89332 c -0.3413,-0.768 -0.8533,-2.13333 -3.1573,-2.13333 -2.6453,0 -5.12,2.21867 -5.7173,4.26667 -0.6827,1.87733 -0.512,4.43733 2.7306,4.43733 0.085,0 -1.8773,3.072 -4.0106,4.09599 -1.6214,0.768 -2.048,2.38934 0,2.048 3.4133,-0.68266 11.6906,-6.91199 10.1546,-12.71466 z"
       id="path12" />
    <path
       style="font-size:80px;fill:#ffffff;stroke:#ffffff"
       d="m 1370.3125,402.8236 c -3.2,0.4 -8.24,6.56 -10.8,10.32 -15.92,23.28 -29.6,58.24 -33.2,58.56 -1.52,-0.16 -6,-1.28 -2.4,-14.96 4.16,-16.96 16,-47.44 16.32,-48.32 1.12,-5.84 -3.04,-3.04 -6.96,-3.04 -3.2,0 -3.76,2.56 -4.4,5.36 -0.96,3.52 -10.56,30.72 -13.12,46 -2.96,16.64 1.44,21.92 7.68,22.72 10.24,1.28 24.96,-37.6 41.28,-60.64 3.76,-5.2 8.48,-9.12 9.52,-12.72 0.4,-1.28 -0.96,-3.76 -3.92,-3.28 z"
       id="path13" />
    <path
       style="fill:#ffffff;stroke:#ffffff"
       d="m 1385.1817,452.53561 c -1.4506,0 -3.072,2.816 -5.7173,6.144 -8.6187,9.89866 -17.7493,10.41066 -20.992,7.16799 -2.1333,-1.96266 -3.4986,-4.94933 -1.536,-9.30133 1.7067,1.28 2.9867,1.87734 5.4613,1.62134 6.5707,0 14.848,-6.99733 16.4694,-12.88533 1.3653,-5.46133 -3.6694,-8.53333 -9.5574,-7.424 -7.0826,1.36533 -13.6533,5.888 -18.6879,15.78666 -4.352,8.96 -3.9254,16.04266 4.2666,19.19999 7.168,2.73067 17.408,0.34134 26.2827,-10.83733 5.0346,-6.22933 5.376,-9.47199 4.0106,-9.47199 z m -13.9946,-9.30133 c 1.6213,0.256 1.024,3.072 -0.8534,4.77866 -2.4746,2.816 -5.888,4.77867 -8.0213,4.18134 -1.4506,-0.42667 -1.4506,-1.536 0,-3.24267 3.328,-3.66933 5.888,-5.03466 8.8747,-5.71733 z m 36.1813,-5.29067 c -4.1813,0 -7.9359,4.18134 -10.8373,7.08267 0.4267,-0.93867 0.6827,-1.96267 1.28,-3.072 2.304,-6.22933 -1.7066,-2.90133 -5.632,-2.90133 -3.4986,0 -4.2666,2.90133 -5.12,5.54666 -5.0346,13.39733 -8.192,21.41866 -8.8746,26.62399 -0.3414,1.792 -0.085,2.64533 0.6826,2.64533 5.12,0 8.2774,-9.38666 12.3734,-19.02932 4.0106,-7.25333 8.192,-10.15466 10.5813,-10.15466 1.9626,0 -0.085,3.92533 -1.8773,8.27733 -0.5974,1.27999 0,2.38933 1.3653,2.38933 3.6693,0 9.6426,-6.912 10.3253,-11.34933 0.5973,-3.84 -1.28,-6.05867 -4.2667,-6.05867 z m 58.5387,19.712 c -1.536,1.792 -8.7894,11.34933 -11.1787,11.34933 -2.816,0 -1.4507,-1.28 3.072,-12.032 3.072,-7.59466 9.0453,-20.56532 -3.2427,-18.17599 -3.84,0.68266 -8.6186,5.80266 -12.8853,10.92266 2.304,-6.57066 2.56,-12.54399 -6.0587,-10.92266 -4.6933,1.19466 -11.264,8.53333 -16.0426,14.93332 1.3653,-2.81599 2.4746,-5.11999 4.2666,-9.64266 2.304,-5.80266 -1.28,-4.43733 -4.9493,-4.43733 -3.4133,0 -4.1813,4.26667 -5.0346,6.912 -0.9387,2.304 -1.8774,6.22933 -3.4987,11.09333 -2.4747,7.93599 -6.912,16.21332 -4.2667,16.21332 2.9867,0 4.864,-1.62133 6.4854,-4.352 6.1439,-7.16799 17.4079,-23.55199 19.5413,-23.55199 3.4133,0 -3.4134,13.48267 -5.8027,19.28533 -0.9387,2.38933 -2.1333,8.02133 -0.1707,7.59466 0.4267,-0.0853 0.9387,-0.34133 1.6214,-0.93866 l 0.6826,-0.34134 c 4.0107,-2.30399 20.0534,-25.59999 22.6134,-25.59999 3.584,0 -2.9867,12.45867 -5.2907,18.26133 -2.3893,5.80266 0.085,9.89866 6.2293,9.89866 7.5947,0 13.312,-12.11733 15.36,-15.01866 2.048,-2.73066 0.3414,-3.41333 -1.4506,-1.45066 z m 44.288,-17.74933 c -2.2186,0.93867 -7.936,5.376 -12.4586,6.74133 0.256,-1.96266 -0.3414,-3.072 -1.1094,-3.84 -0.6826,-2.048 -2.816,-5.37599 -7.8506,-5.37599 -11.3494,0 -21.5894,12.88532 -24.4907,21.93065 -1.792,5.80267 -0.9387,15.104 8.6187,15.104 11.0933,0 22.272,-12.11733 24.064,-21.93066 6.4853,-3.072 10.24,-6.48533 12.032,-9.13066 0.1706,-0.59734 3.4986,-4.43734 1.1946,-3.49867 z m -33.6213,27.98932 c -2.9013,0 -6.2293,-2.64533 -3.7547,-9.47199 3.4134,-8.448 9.1307,-14.25066 13.056,-14.25066 1.6214,0 2.2187,0.256 2.816,0.85333 -2.7306,3.66933 -1.4506,8.70399 1.8774,8.95999 -2.048,4.864 -8.0214,13.90933 -13.9947,13.90933 z m 63.6587,-10.23999 c -1.792,1.792 -8.448,11.26399 -11.1787,11.26399 -2.7306,0 -1.7066,-1.19466 3.072,-11.94666 3.4134,-7.59466 8.96,-20.56532 -3.2426,-18.17599 -6.656,1.36533 -16.384,15.35999 -20.3093,21.16266 2.6453,-5.46134 5.9733,-11.008 8.2773,-16.46933 2.304,-5.80267 -1.28,-4.43733 -5.0347,-4.43733 -3.328,0 -4.1813,3.75466 -5.2906,6.4 -2.4747,5.63199 -7.8507,20.22399 -9.216,25.94132 -0.4267,1.62133 0.085,2.64533 1.024,2.64533 2.304,0 3.9253,-0.256 6.0586,-2.56 4.0107,-4.352 18.6027,-25.51466 20.992,-25.51466 3.9253,0 -3.2427,12.37333 -5.2907,18.176 -2.3893,5.80266 0,9.89866 6.2294,9.89866 7.7653,0 13.2266,-12.11733 15.36,-14.93333 2.048,-2.73066 0.3413,-3.41333 -1.4507,-1.45066 z"
       id="path14" />
    <path
       style="font-size:77.3333px;fill:#ffffff;stroke:#ffffff"
       d="m 1545.8219,461.87427 c 3.1706,-8.35199 6.8053,-16.31732 10.1306,-24.66932 l 2.088,-0.15467 c 8.5067,-0.61866 13.688,-1.23733 13.3013,-3.09333 -0.3866,-1.77866 -3.016,-1.392 -10.3626,-1.16 -1.16,0 -2.0107,0 -3.248,0.0773 4.7173,-11.90933 9.5893,-23.74133 11.0586,-26.44799 2.088,-4.33067 -2.32,-2.32 -5.1813,-2.32 -2.4747,0 -3.712,2.01066 -4.5627,4.09866 -0.3866,0.928 -4.9493,12.992 -9.28,24.90133 l -8.5066,0.15466 c -2.088,0 -1.4693,1.70133 -1.3147,2.01067 0.232,1.31466 0.7734,3.016 2.2427,2.93866 l 5.8,-0.464 c -2.3973,5.95467 -4.2533,11.52266 -5.4907,15.23466 -0.8506,2.47467 -3.6346,10.51733 -3.8666,11.368 -0.3867,1.70133 -0.464,3.248 -0.3094,4.71733 0.232,2.39733 1.5467,4.71733 5.1814,4.71733 5.568,0 10.2079,-4.02133 14.2293,-9.28 4.2533,-5.56799 5.8,-8.50666 4.5626,-8.50666 -1.3146,0 -3.7893,2.62933 -6.3413,5.49067 -2.2427,2.86133 -6.5733,7.26933 -9.6666,7.26933 -3.0934,0 -1.7014,-3.248 -0.464,-6.88267 z"
       id="path15" />
  </g>
  <path
     style="font-size:72px;line-height:0;font-family:'Fonseca Script';-inkscape-font-specification:'Fonseca Script, Normal';fill:#ffffff;stroke:#ffffff;stroke-width:0"
     d="m 1012.5549,427.02368 c -0.504,2.232 1.368,2.592 4.176,2.592 2.88,0 11.232,-2.736 12.96,-11.952 2.52,-12.672 -9.936,-18.936 -21.816,-18.576 -12.38403,0.36 -27.43203,10.008 -29.95203,22.392 -2.16,11.016 3.888,18.072 16.2,24.768 3.6,2.088 13.24803,6.768 12.09603,12.312 -1.728,8.568 -9.36003,13.464 -17.56803,13.464 -3.168,0 -5.76,-1.512 -4.248,-4.608 1.368,-2.664 4.896,-6.12 8.928,-8.928 6.552,-4.608 12.02403,-10.224 1.944,-5.544 -5.976,2.592 -16.272,9.648 -17.568,16.416 -0.936,5.184 3.384,8.424 7.848,8.424 11.808,0 26.28003,-7.416 28.80003,-19.728 1.368,-7.56 -4.032,-11.952 -13.896,-17.928 -7.48803,-4.392 -16.48803,-7.704 -14.40003,-19.008 1.728,-8.64 11.952,-16.992 20.88003,-16.992 10.44,0 15.84,5.832 14.112,14.832 -1.152,6.12 -7.92,5.76 -8.496,8.064 z"
     id="text30-6-5-2-3"
     aria-label="S" />
  <metadata
     id="metadata69">
    <rdf:RDF>
      <cc:Work
         rdf:about="">
        <dc:title>Snowbound, December 40th, Somewhere, Vermont.</dc:title>
      </cc:Work>
    </rdf:RDF>
  </metadata>
</svg>
