<?xml version="1.0" encoding="UTF-8" standalone="no"?>
<svg
   id="a"
   viewBox="0 0 1920 527.61"
   version="1.1"
   sodipodi:docname="updatedHackSnowBoundBanner.svg"
   inkscape:version="1.3.2 (091e20e, 2023-11-25, custom)"
   xmlns:inkscape="http://www.inkscape.org/namespaces/inkscape"
   xmlns:sodipodi="http://sodipodi.sourceforge.net/DTD/sodipodi-0.dtd"
   xmlns="http://www.w3.org/2000/svg"
   xmlns:svg="http://www.w3.org/2000/svg"
   xmlns:rdf="http://www.w3.org/1999/02/22-rdf-syntax-ns#"
   xmlns:cc="http://creativecommons.org/ns#"
   xmlns:dc="http://purl.org/dc/elements/1.1/">
  <sodipodi:namedview
     id="namedview1"
     pagecolor="#ffffff"
     bordercolor="#000000"
     borderopacity="0.25"
     inkscape:showpageshadow="2"
     inkscape:pageopacity="0.0"
     inkscape:pagecheckerboard="0"
     inkscape:deskcolor="#d1d1d1"
     inkscape:zoom="0.440625"
     inkscape:cx="220.14184"
     inkscape:cy="293.90071"
     inkscape:window-width="2560"
     inkscape:window-height="1566"
     inkscape:window-x="-11"
     inkscape:window-y="-11"
     inkscape:window-maximized="1"
     inkscape:current-layer="a" />
  <title
     id="title1">Snowbound, March 22nd, Shelburne, Vermont.</title>
  <defs
     id="defs2">
    <rect
       x="414.75177"
       y="319.43262"
       width="385.24823"
       height="167.37589"
       id="rect31" />
    <rect
       x="768.22695"
       y="557.7305"
       width="340.42553"
       height="89.078014"
       id="rect29" />
    <rect
       x="480"
       y="554.32624"
       width="407.37589"
       height="85.106383"
       id="rect27" />
    <clipPath
       id="b">
      <path
         class="h"
         d="m86.61 285.62 170.64-95 45.52 36.04 38.89-10.43 140.36 60.7 205.79-61.65 72.25 22.84 39.66-38.01 141.31 67.33 130.88-51.21 25.63 21.89 109.99-38.01 116.65 67.33 82.51-45.52 83.46 55.96 106.21-77.77 52.16 57.85 37.76-19.84 46.65 42.6 64.49-58.8 53.9 63.7"
         id="path1" />
    </clipPath>
    <clipPath
       id="c">
      <path
         class="h"
         d="M208.42 231.89c7.52 9.84 11.35 21.19 11.35 34.04 0 16.55-6.02 30.45-18.06 41.68s-26.86 16.9-44.34 16.9c-13.89 0-26.28-3.59-37.16-10.77-10.88-7.18-22-17.6-33.23-31.37L60.01 246.6l43.41-29.87-13.31-18.52c-11.92-11.92-17.83-25.35-17.83-40.29 0-16.32 6.14-30.1 18.29-41.21 12.16-11.11 26.86-16.67 44.11-16.67 9.15 0 18.64 2.08 28.48 6.25s18.64 9.96 26.51 17.37l25.12 35.54-32.99 35.08c2.43 3.01 4.63 6.37 6.6 9.96l20.03 27.67Zm-58.69-57.77c-.35-.12-1.97-1.04-4.86-2.66s-5.21-3.01-6.83-4.17-3.59-2.66-5.9-4.51-4.05-3.7-5.21-5.67-1.74-3.94-1.74-5.9c0-3.01.93-5.44 2.78-7.29s4.17-2.78 7.06-2.78c1.04 0 2.2.12 3.36.46s2.32.81 3.47 1.39 2.2 1.16 3.01 1.74 1.85 1.39 3.01 2.43 2.08 1.74 2.66 2.2 1.39 1.27 2.55 2.43l1.97 1.97 28.71-30.56c-13.43-12.62-29.52-18.99-48.39-18.99-15.86 0-29.41 5.09-40.75 15.28-11.35 10.19-17.02 22.81-17.02 37.86 0 19.8 11.69 36.58 35.08 50.48l5.79 3.13c3.59 2.2 6.37 4.05 8.34 5.44s4.51 3.24 7.52 5.67 5.33 4.86 6.83 7.41 2.32 4.98 2.32 7.41c0 3.36-1.27 6.02-3.82 7.99-2.55 1.97-5.56 2.89-9.03 2.89-2.66 0-5.21-.58-7.64-1.74s-4.63-2.89-6.71-5.21-3.7-4.28-4.98-6.02c-1.27-1.74-2.78-4.05-4.51-6.95-1.74-2.89-2.89-4.63-3.47-5.21l-35.77 24.89c9.61 12.16 19.45 21.42 29.52 27.67s21.65 9.38 34.73 9.38c16.44 0 30.33-5.33 41.68-15.86 6.9-6.41 11.7-13.71 14.41-21.92 1.74-5.29 2.61-10.95 2.61-16.98 0-12.16-3.82-22.92-11.35-32.3-7.52-9.38-17.13-17.37-28.83-23.85l-.58.46Zm-20.49 69.46c-6.6-4.75-12.5-10.07-17.6-15.98l8.57 12.04c2.66 2.55 5.67 3.82 9.03 3.82v.12Zm251.01-139.85 25.35 36.24v186.62h-10.42l-73.74-69.23v64.48h-58.81l-26.74-34.85V102.35h13.66l70.5 66.34v-64.95h60.2Zm-55.45 4.75v70.85l-77.1-72.24h-7.06v175.16h50.71v-69.92L370.77 287h4.75V108.49h-50.71Zm193.32-7.18c15.17 0 29.41 3.59 42.72 10.77 13.31 7.18 24.31 16.9 32.99 29.17l25.35 35.19c11.92 16.09 17.83 34.15 17.83 54.18 0 25.93-8.8 47.93-26.51 65.87-17.71 17.94-39.82 26.97-66.33 26.97-14.94 0-29.06-3.47-42.37-10.3-13.31-6.83-24.31-16.21-32.99-28.13l-26.86-35.43c-11.92-16.09-17.83-34.27-17.71-54.53 0-25.01 9.15-46.89 27.44-65.64s40.4-28.13 66.34-28.13h.11Zm-.11 4.75c-16.32 0-31.37 4.17-45.15 12.5-13.78 8.34-24.54 19.33-32.3 32.99-7.76 13.66-11.58 28.13-11.58 43.41 0 24.66 8.91 45.61 26.63 62.98 17.71 17.37 38.44 26.05 62.17 26.05 25.47 0 46.65-8.57 63.56-25.82 16.9-17.25 25.35-38.32 25.35-63.21s-8.92-45.61-26.74-62.98c-17.83-17.37-38.55-26.05-62.28-26.05l.35.12Zm-.35 141.01c-10.77 0-19.1-5.44-25.01-16.32-5.9-10.88-8.91-22.81-8.91-35.77s3.13-24.43 9.26-35.43c6.14-11 14.36-16.55 24.66-16.55 7.29 0 13.66 2.89 18.99 8.8 5.33 5.9 9.15 12.73 11.46 20.38 2.32 7.64 3.47 15.28 3.47 22.81 0 12.85-3.01 24.77-9.15 35.77-6.13 11-14.36 16.44-24.77 16.44v-.12Zm-2.78-4.86c6.83.93 12.73-1.16 17.83-6.14s8.8-11.11 11.11-18.41c2.32-7.29 3.47-14.82 3.47-22.57 0-3.36-.46-7.52-1.27-12.5-6.83 0-12.73 2.55-17.83 7.76-5.09 5.21-8.68 11.35-10.77 18.41-2.08 7.06-3.13 14.36-3.13 21.88 0 5.21.23 9.03.69 11.58h-.12Zm348.26-138.46 24.89 36.24-73.17 181.87H796.8L770.29 287l-5.21-12.39-18.75 47.23h-18.06l-26.51-34.85-73.98-183.26h64.95l25.58 36.24 5.67 14.7 20.61-50.94h16.67l25.58 36.24 5.67 14.7 20.61-50.94h50.01Zm-46.65 4.75-29.17 72.01-29.41-72.01h-9.96l-29.17 72.01-29.41-72.01h-54.53L705 282.26h12.39l28.02-69.69 28.13 69.69h12.39l70.16-173.77H816.5Zm80.42 178.98V104.2h65.18c7.52 0 14.7 1.85 21.53 5.56 6.83 3.7 12.62 8.68 17.37 15.05.46.46 1.04 1.27 1.85 2.43s3.36 4.86 7.76 11 9.72 13.43 15.86 22c6.14 8.57 9.26 17.83 9.26 27.78 0 5.67-1.16 11.69-3.59 17.94l12.85 17.37c8.22 11.23 12.27 23.39 12.27 36.47 0 16.9-6.02 31.37-18.06 43.41-12.04 12.04-26.63 18.41-43.88 18.99h-71.66l-26.74-34.73Zm102.34-112.76c4.05-7.06 6.14-14.47 6.25-22.23 0-11.92-4.4-22.23-13.08-30.79-8.68-8.57-18.75-12.85-30.22-12.85h-60.43v173.77h67.49c15.86-.58 29.52-6.6 40.87-17.94 11.35-11.35 17.02-24.89 17.02-40.52 0-9.61-2.43-18.75-7.29-27.44-4.86-8.68-11.69-16.09-20.61-22.11v.12Zm-41.21-32.3c5.21 0 7.87 4.75 7.87 14.24 0 3.94-.69 7.18-2.08 9.84-1.39 2.66-3.24 3.94-5.67 3.94h-5.9V142.3l5.79.12Zm-5.79 103.27v-51.05h6.83c4.75 0 8.8 2.43 12.27 7.29 3.47 4.86 5.21 10.88 5.21 18.06s-1.62 13.2-4.86 18.18-7.06 7.41-11.46 7.41l-7.99.12Zm201.24-144.36c15.17 0 29.41 3.59 42.72 10.77 13.31 7.18 24.31 16.9 32.99 29.17l25.35 35.19c11.92 16.09 17.83 34.15 17.83 54.18 0 25.93-8.8 47.93-26.51 65.87-17.71 17.94-39.82 26.97-66.34 26.97-14.93 0-29.06-3.47-42.37-10.3s-24.31-16.21-32.99-28.13l-26.86-35.43c-11.92-16.09-17.83-34.27-17.71-54.53 0-25.01 9.15-46.89 27.44-65.64s40.4-28.13 66.34-28.13h.12Zm-.12 4.75c-16.32 0-31.37 4.17-45.15 12.5-13.78 8.34-24.54 19.33-32.3 32.99-7.76 13.66-11.58 28.13-11.58 43.41 0 24.66 8.91 45.61 26.63 62.98 17.71 17.37 38.44 26.05 62.17 26.05 25.47 0 46.65-8.57 63.56-25.82 16.9-17.25 25.35-38.32 25.35-63.21s-8.91-45.61-26.74-62.98c-17.83-17.37-38.55-26.05-62.28-26.05l.35.12Zm-.35 141.01c-10.77 0-19.1-5.44-25.01-16.32-5.9-10.88-8.91-22.81-8.91-35.77s3.13-24.43 9.26-35.43c6.14-11 14.36-16.55 24.66-16.55 7.29 0 13.66 2.89 18.99 8.8 5.33 5.9 9.15 12.73 11.46 20.38 2.32 7.64 3.47 15.28 3.47 22.81 0 12.85-3.01 24.77-9.15 35.77-6.14 11-14.36 16.44-24.77 16.44v-.12Zm-2.78-4.86c6.83.93 12.73-1.16 17.83-6.14 5.09-4.98 8.8-11.11 11.11-18.41 2.32-7.29 3.47-14.82 3.47-22.57 0-3.36-.46-7.52-1.27-12.5-6.83 0-12.73 2.55-17.83 7.76-5.09 5.21-8.68 11.35-10.77 18.41-2.08 7.06-3.13 14.36-3.13 21.88 0 5.21.23 9.03.69 11.58h-.12Zm174.75 50.36c-17.83-23.27-26.86-35.08-26.97-35.43-7.29-10.3-11.46-21.53-12.5-33.69V103.75h60.2l25.47 36.24v94.35c2.2-2.66 3.47-5.79 3.7-9.38V103.87h53.37l25.35 36.24v119.01c-.93 16.79-8.34 31.6-22.11 44.46-13.78 12.85-29.52 19.22-47.23 19.22-11.69 0-22.81-2.66-33.34-7.99-10.53-5.33-19.22-12.73-26.05-22.11l.12-.12Zm54.64-183.84v116.35c-.12 5.21-2.08 9.72-5.79 13.43-3.7 3.7-8.22 5.56-13.66 5.56s-9.72-1.85-13.43-5.56c-3.7-3.7-5.67-8.22-5.79-13.43V108.74h-50.71v114.73c1.27 16.9 8.68 31.03 22.11 42.49s28.71 17.13 45.73 17.13 31.37-6.02 44.46-18.06c13.08-12.04 20.03-25.93 20.95-41.79V108.51l-43.88.23Zm242.38-4.98 25.35 36.24v186.62h-10.42l-73.74-69.23v64.48h-58.81l-26.74-34.85V102.35h13.66l70.5 66.34v-64.95h60.2Zm-55.45 4.75v70.85l-77.1-72.24h-7.06v175.16h50.71v-69.92l79.42 74.67h4.75V108.49h-50.71Zm172.61-4.51c14.01.35 27.21 3.59 39.48 9.72 12.27 6.14 22.81 14.47 31.49 25.01.81 1.04 1.97 2.55 3.47 4.63 1.5 2.08 4.51 6.25 8.91 12.5s9.84 13.78 16.32 22.46c11.58 15.63 17.37 33.23 17.25 52.79 0 15.63-3.94 30.45-11.92 44.34s-18.99 25.12-32.99 33.69c-14.01 8.57-29.29 12.85-45.84 12.85h-62.63l-26.74-34.85V103.85l63.21.12Zm-58.46 4.63V282.4h58.46c15.63 0 30.22-4.05 43.64-12.16 13.43-8.1 23.96-18.87 31.6-32.18 7.64-13.31 11.46-27.44 11.46-42.49 0-23.96-8.57-44.34-25.7-61.01-17.13-16.67-37.51-25.35-61.24-25.93h-58.23Zm50.48 138V144.41h5.21c9.96 0 18.41 5.09 25.35 15.4 6.95 10.3 10.42 22.23 10.42 35.77s-3.47 26.05-10.53 36-15.51 14.93-25.35 14.93l-5.09.12Zm30.33-23.39c4.05-8.22 6.14-17.37 6.14-27.55 0-4.05-.35-7.76-.93-11.11-2.2-.35-3.94-.46-5.21-.46v39.13Z"
         id="path2" />
    </clipPath>
    <style
       id="style2">.d,.e{fill:#fff}.e{fill-rule:evenodd}.h{fill:none}.j{fill:#6cf}</style>
  </defs>
  <path
     style="fill:#338eda;stroke-width:1.00729"
     d="M 0,0 H 1920 V 527.61 H 0 Z"
     id="path3" />
  <path
     class="e"
     d="M912.5 404.23c0-1.46-1.28-2.63-2.85-2.63s-2.85 1.18-2.85 2.63v6.89c-1.34-.89-2.49-1.92-4.23-3.5a2.855 2.855 0 0 0-4.39 3.65c1.79 1.95 5.32 5.3 8.61 6.75v35.64c-3.29 1.44-6.82 4.79-8.61 6.75a2.846 2.846 0 0 0 .37 4.02c1.21 1.01 3.01.84 4.02-.37 1.74-1.58 2.89-2.61 4.23-3.5v6.89c0 1.46 1.28 2.63 2.85 2.63s2.85-1.18 2.85-2.63v-6.89c1.34.89 2.48 1.92 4.23 3.5a2.855 2.855 0 0 0 4.02.37 2.864 2.864 0 0 0 .37-4.02c-1.79-1.95-5.32-5.3-8.61-6.75v-35.64c3.29-1.44 6.82-4.79 8.61-6.75a2.855 2.855 0 0 0-4.39-3.65c-1.75 1.58-2.89 2.61-4.23 3.5v-6.89Z"
     id="path21" />
  <path
     class="e"
     d="M938.45 422.51c1.26-.73 1.64-2.42.86-3.79-.79-1.36-2.45-1.88-3.71-1.15l-5.96 3.44c.1-1.61.42-3.11.92-5.41.55-1.48-.21-3.12-1.69-3.66s-3.12.22-3.66 1.7c-.8 2.53-1.94 7.26-1.54 10.83l-30.86 17.82c-2.9-2.13-7.56-3.51-10.15-4.08a2.85 2.85 0 0 0-3.3 2.33c-.27 1.55.77 3.03 2.33 3.3 2.24.72 3.7 1.19 5.15 1.91l-5.96 3.44c-1.26.73-1.64 2.42-.86 3.79.79 1.37 2.45 1.88 3.71 1.16l5.96-3.44c-.1 1.61-.42 3.11-.92 5.41-.54 1.48.21 3.12 1.7 3.66 1.48.54 3.12-.22 3.66-1.7.8-2.53 1.93-7.26 1.54-10.84l30.86-17.82c2.9 2.13 7.56 3.51 10.15 4.08 1.55.27 3.03-.77 3.3-2.33.27-1.55-.77-3.03-2.33-3.3-2.24-.72-3.7-1.19-5.15-1.91l5.96-3.44Z"
     id="path22" />
  <path
     class="e"
     d="M935.6 454.12c1.26.73 2.92.21 3.71-1.16.79-1.36.41-3.06-.85-3.79l-5.97-3.44c1.45-.72 2.91-1.19 5.15-1.91a2.864 2.864 0 0 0 2.33-3.3 2.862 2.862 0 0 0-3.3-2.33c-2.59.57-7.25 1.95-10.15 4.08l-30.86-17.82c.4-3.57-.74-8.3-1.54-10.83-.55-1.48-2.19-2.24-3.66-1.7-1.48.55-2.24 2.19-1.69 3.66.5 2.3.82 3.8.92 5.41l-5.96-3.44c-1.26-.73-2.92-.21-3.71 1.15-.79 1.37-.41 3.06.86 3.79l5.96 3.44c-1.44.72-2.91 1.19-5.15 1.91a2.864 2.864 0 0 0-2.33 3.3 2.862 2.862 0 0 0 3.3 2.33c2.59-.57 7.25-1.95 10.15-4.08l30.86 17.82c-.39 3.58.74 8.3 1.54 10.84a2.854 2.854 0 0 0 3.66 1.7c1.48-.55 2.24-2.19 1.69-3.66-.5-2.3-.82-3.8-.92-5.41l5.97 3.44Z"
     id="path23" />
  <g
     style="clip-path:url(#b);fill:none"
     clip-path="url(#b)"
     id="g24">
    <path
       class="d"
       style="fill:none;clip-path:url(#c)"
       d="M49.55 0h1820.89v474.19H49.55z"
       clip-path="url(#c)"
       id="path24" />
  </g>
  <path
     class="d"
     d="m98.87 276.57 91.45-49.63 1.49 56.63-57.85 2.84-30.35-1.9-4.74-7.94zm141.76-76.69 16.62-9.26 34.08 26.99v66.9h-50.7v-84.63zm65.1 25.99 35.93-9.64 33.84 14.63v54.76h-6.21l-63.56-59.75zm176.29 51.06 110.64-33.15v41.39H481.19l.83-8.24zm197-59.01 8.79-2.64 72.25 22.84 39.66-38.01 16.24 7.73v76.67h-43.72l-3.81-14.22h-5.69l-35.09 13.28h-24.66l-23.97-62.14v-3.51zm217.87 28.49 44.14 21.03 85.29-33.37v50.44H899.35l-2.46-38.1zm170.32-28.34 4.7-1.84 25.63 21.89 52.14-18.1v22.77h13.27l10.44-10.44 3.79-8.53 2.84-5.69 1.9-8.54 25.61-9.48 64.63 37.3-40.92 42.36-38.4 4.74h-75.19l-16.34-8.53-33.19-43.63-.91-14.28zm234.3 36.29 22.67 13.08 82.51-45.52 15.56 10.44 1.53 52.15H1320.2l-23.52-30.34 4.83.19zm180.88 18.31 7.76 5.21 42.94-31.45 21.02 38.08h-74.09l2.37-11.84zm71.1-41.17 42.87-31.39 20.9 23.17v62.34h-6.21l-57.56-54.12zm127.21 9.56 5.58-2.94 46.65 42.6 64.49-58.8 15.6 18.44v43.33h-134.93l2.61-42.63z"
     id="path25" />
  <path
     class="j"
     d="M208.42 231.89c7.52 9.84 11.35 21.19 11.35 34.04 0 16.56-6.02 30.45-18.06 41.68s-26.86 16.9-44.34 16.9c-13.89 0-26.28-3.59-37.16-10.77-10.88-7.18-22-17.6-33.23-31.37L60.01 246.6l43.41-29.87-13.31-18.52c-11.92-11.92-17.83-25.35-17.83-40.29 0-16.32 6.14-30.1 18.29-41.21 12.16-11.11 26.86-16.67 44.11-16.67 9.15 0 18.64 2.08 28.48 6.25s18.64 9.96 26.51 17.37l25.12 35.54-32.99 35.08c2.43 3.01 4.63 6.37 6.6 9.96l20.03 27.67Zm-58.69-57.77c-.35-.12-1.97-1.04-4.86-2.66-2.89-1.62-5.21-3.01-6.83-4.17s-3.59-2.66-5.9-4.52c-2.32-1.85-4.05-3.7-5.21-5.67-1.16-1.97-1.74-3.94-1.74-5.9 0-3.01.93-5.44 2.78-7.29 1.85-1.85 4.17-2.78 7.06-2.78 1.04 0 2.2.12 3.36.46s2.32.81 3.47 1.39c1.16.58 2.2 1.16 3.01 1.74.81.58 1.85 1.39 3.01 2.43 1.16 1.04 2.08 1.74 2.66 2.2.58.46 1.39 1.27 2.55 2.43l1.97 1.97 28.71-30.56c-13.43-12.62-29.52-18.99-48.39-18.99-15.86 0-29.41 5.09-40.75 15.28s-17.02 22.81-17.02 37.86c0 19.8 11.69 36.58 35.08 50.48l5.79 3.13c3.59 2.2 6.37 4.05 8.34 5.44 1.97 1.39 4.51 3.24 7.52 5.67 3.01 2.43 5.33 4.86 6.83 7.41 1.51 2.55 2.32 4.98 2.32 7.41 0 3.36-1.27 6.02-3.82 7.99s-5.56 2.89-9.03 2.89c-2.66 0-5.21-.58-7.64-1.74-2.43-1.16-4.63-2.89-6.71-5.21-2.08-2.31-3.7-4.28-4.98-6.02-1.27-1.74-2.78-4.05-4.51-6.95-1.74-2.89-2.89-4.63-3.47-5.21l-35.77 24.89c9.61 12.16 19.45 21.42 29.52 27.67s21.65 9.38 34.73 9.38c16.44 0 30.33-5.33 41.68-15.86 11.35-10.53 17.02-23.5 17.02-38.9 0-12.16-3.82-22.92-11.35-32.3-7.52-9.38-17.13-17.37-28.83-23.85l-.58.46Zm-20.49 69.46c-6.6-4.75-12.5-10.07-17.6-15.98l8.57 12.04c2.66 2.55 5.67 3.82 9.03 3.82v.12Zm251-139.84 25.35 36.24V326.6h-10.42l-73.74-69.23v64.48h-58.81L235.88 287V102.35h13.66l70.5 66.34v-64.95h60.2Zm-55.45 4.75v70.85l-77.1-72.24h-7.06v175.16h50.71v-69.92l79.42 74.67h4.75V108.48H324.8Zm193.32-7.18c15.17 0 29.41 3.59 42.72 10.77 13.31 7.18 24.31 16.9 32.99 29.17l25.35 35.19c11.92 16.09 17.83 34.15 17.83 54.18 0 25.93-8.8 47.93-26.51 65.87s-39.82 26.97-66.34 26.97c-14.93 0-29.06-3.47-42.37-10.3s-24.31-16.21-32.99-28.13l-26.86-35.43c-11.92-16.09-17.83-34.27-17.71-54.53 0-25.01 9.15-46.89 27.44-65.64s40.4-28.13 66.34-28.13h.12Zm-.12 4.75c-16.32 0-31.37 4.17-45.15 12.5-13.78 8.34-24.54 19.33-32.3 32.99-7.76 13.66-11.58 28.13-11.58 43.41 0 24.66 8.91 45.61 26.63 62.98 17.71 17.37 38.44 26.05 62.17 26.05 25.47 0 46.65-8.57 63.56-25.82 16.9-17.25 25.35-38.32 25.35-63.21s-8.91-45.61-26.74-62.98c-17.83-17.37-38.55-26.05-62.28-26.05l.35.12Zm-.35 141.01c-10.77 0-19.1-5.44-25.01-16.32-5.9-10.88-8.91-22.81-8.91-35.77s3.13-24.43 9.26-35.42S507.33 143 517.64 143c7.29 0 13.66 2.89 18.99 8.8 5.33 5.9 9.15 12.73 11.46 20.38 2.32 7.64 3.47 15.28 3.47 22.81 0 12.85-3.01 24.77-9.15 35.77s-14.36 16.44-24.77 16.44v-.12Zm-2.78-4.86c6.83.93 12.73-1.16 17.83-6.14s8.8-11.11 11.11-18.41 3.47-14.82 3.47-22.58c0-3.36-.46-7.52-1.27-12.5-6.83 0-12.73 2.55-17.83 7.76-5.09 5.21-8.68 11.35-10.77 18.41-2.08 7.06-3.13 14.36-3.13 21.88 0 5.21.23 9.03.69 11.58h-.12Zm348.27-138.47 24.89 36.24-73.17 181.87h-18.06L770.28 287l-5.21-12.39-18.75 47.23h-18.06l-26.51-34.85-73.98-183.26h64.95l25.58 36.24 5.67 14.7 20.61-50.94h16.67l25.58 36.24 5.67 14.7 20.61-50.94h50.01Zm-46.65 4.75-29.17 72.01-29.41-72.01h-9.96l-29.17 72.01-29.41-72.01h-54.53l70.16 173.77h12.39l28.02-69.69 28.13 69.69h12.39l70.16-173.77h-39.59Zm80.41 178.97V104.2h65.18c7.53 0 14.7 1.85 21.53 5.56s12.62 8.68 17.37 15.05c.46.46 1.04 1.27 1.85 2.43.81 1.16 3.36 4.86 7.76 11s9.72 13.43 15.86 22 9.26 17.83 9.26 27.78c0 5.67-1.16 11.69-3.59 17.94l12.85 17.37c8.22 11.23 12.27 23.39 12.27 36.47 0 16.9-6.02 31.37-18.06 43.41-12.04 12.04-26.63 18.41-43.88 18.99h-71.66l-26.74-34.73ZM999.23 174.7c4.05-7.06 6.14-14.47 6.25-22.23 0-11.92-4.4-22.23-13.08-30.79s-18.75-12.85-30.21-12.85h-60.43V282.6h67.49c15.86-.58 29.52-6.6 40.87-17.94 11.35-11.35 17.02-24.89 17.02-40.52 0-9.61-2.43-18.75-7.29-27.44s-11.69-16.09-20.61-22.11v.12Zm-41.21-32.3c5.21 0 7.87 4.75 7.87 14.24 0 3.94-.69 7.18-2.08 9.84-1.39 2.66-3.24 3.94-5.67 3.94h-5.9v-28.13l5.79.12Zm-5.79 103.27v-51.05h6.83c4.75 0 8.8 2.43 12.27 7.29 3.47 4.86 5.21 10.88 5.21 18.06s-1.62 13.2-4.86 18.18-7.06 7.41-11.46 7.41l-7.99.12Zm201.24-144.36c15.17 0 29.4 3.59 42.72 10.77s24.31 16.9 32.99 29.17l25.35 35.19c11.92 16.09 17.83 34.15 17.83 54.18 0 25.93-8.8 47.93-26.51 65.87s-39.82 26.97-66.33 26.97c-14.93 0-29.06-3.47-42.37-10.3-13.31-6.83-24.31-16.21-32.99-28.13l-26.86-35.43c-11.92-16.09-17.83-34.27-17.71-54.53 0-25.01 9.15-46.89 27.44-65.64s40.4-28.13 66.33-28.13h.12Zm-.12 4.75c-16.32 0-31.37 4.17-45.15 12.5-13.78 8.34-24.54 19.33-32.3 32.99-7.76 13.66-11.58 28.13-11.58 43.41 0 24.66 8.92 45.61 26.63 62.98 17.71 17.37 38.44 26.05 62.17 26.05 25.47 0 46.65-8.57 63.56-25.82 16.9-17.25 25.35-38.32 25.35-63.21s-8.91-45.61-26.74-62.98c-17.83-17.37-38.55-26.05-62.28-26.05l.35.12Zm-.35 141.01c-10.77 0-19.1-5.44-25.01-16.32s-8.91-22.81-8.91-35.77 3.13-24.43 9.26-35.42S1142.7 143 1153 143c7.29 0 13.66 2.89 18.99 8.8 5.33 5.9 9.15 12.73 11.46 20.38s3.47 15.28 3.47 22.81c0 12.85-3.01 24.77-9.15 35.77s-14.35 16.44-24.77 16.44v-.12Zm-2.78-4.86c6.83.93 12.73-1.16 17.83-6.14 5.09-4.98 8.8-11.11 11.11-18.41s3.47-14.82 3.47-22.58c0-3.36-.46-7.52-1.27-12.5-6.83 0-12.73 2.55-17.83 7.76-5.09 5.21-8.68 11.35-10.77 18.41-2.08 7.06-3.12 14.36-3.12 21.88 0 5.21.23 9.03.69 11.58h-.12Zm174.76 50.35c-17.83-23.27-26.86-35.08-26.97-35.43-7.29-10.3-11.46-21.53-12.5-33.69v-119.7h60.2l25.47 36.24v94.35c2.2-2.66 3.47-5.79 3.7-9.38V103.86h53.37l25.35 36.24v119.01c-.93 16.79-8.33 31.6-22.11 44.46-13.78 12.85-29.52 19.22-47.23 19.22-11.69 0-22.81-2.66-33.34-7.99-10.54-5.32-19.22-12.73-26.05-22.11l.12-.12Zm54.64-183.84v116.35c-.12 5.21-2.08 9.72-5.79 13.43-3.7 3.7-8.22 5.56-13.66 5.56s-9.72-1.85-13.43-5.56c-3.7-3.7-5.67-8.22-5.79-13.43V108.72h-50.71v114.73c1.27 16.9 8.68 31.03 22.11 42.49s28.71 17.13 45.73 17.13 31.37-6.02 44.46-18.06c13.08-12.04 20.03-25.93 20.95-41.79V108.49l-43.88.23Zm242.38-4.98 25.35 36.24V326.6h-10.42l-73.74-69.23v64.48h-58.81L1477.64 287V102.35h13.66l70.5 66.34v-64.95h60.2Zm-55.45 4.75v70.85l-77.1-72.24h-7.06v175.16h50.71v-69.92l79.42 74.67h4.75V108.48h-50.71Zm172.61-4.52c14.01.35 27.21 3.59 39.48 9.72s22.81 14.47 31.49 25.01c.81 1.04 1.97 2.55 3.47 4.63 1.5 2.08 4.51 6.25 8.91 12.5s9.84 13.78 16.32 22.46c11.58 15.63 17.37 33.23 17.25 52.79 0 15.63-3.94 30.45-11.92 44.34-7.99 13.89-18.99 25.12-32.99 33.69-14.01 8.57-29.29 12.85-45.84 12.85h-62.63l-26.74-34.85V103.85l63.21.12Zm-58.46 4.63v173.77h58.46c15.63 0 30.22-4.05 43.64-12.16 13.43-8.1 23.96-18.87 31.61-32.18 7.64-13.31 11.46-27.44 11.46-42.49 0-23.96-8.57-44.34-25.7-61.01-17.13-16.67-37.51-25.35-61.24-25.93h-58.23Zm50.47 138V144.38h5.21c9.96 0 18.41 5.09 25.35 15.4 6.95 10.3 10.42 22.23 10.42 35.77s-3.47 26.05-10.54 36-15.51 14.93-25.35 14.93l-5.09.12Zm30.33-23.39c4.05-8.22 6.14-17.37 6.14-27.55 0-4.05-.35-7.76-.93-11.11-2.2-.35-3.94-.46-5.21-.46v39.13Z"
     id="path26" />
  <path
     class="j"
     d="m369.29 285.62 1.46 1.38h4.75v-1.38h-6.21zm1241.76 0 1.46 1.38h4.75v-1.38h-6.21z"
     id="path27" />
  <text
     xml:space="preserve"
     style="font-style:normal;font-variant:normal;font-weight:normal;font-stretch:normal;font-size:85.3333px;line-height:0;font-family:'Fonseca Script';-inkscape-font-specification:'Fonseca Script, Normal';font-variant-ligatures:normal;font-variant-caps:normal;font-variant-numeric:normal;font-variant-east-asian:normal;fill:#222222;fill-opacity:1;stroke:#e824ef;stroke-width:0;stroke-dasharray:none"
     x="386.46472"
     y="467.5069"
     id="text30-6-2"><tspan
       id="tspan30-8-80"
       x="386.46472"
       y="467.5069"
       style="font-size:85.3333px;line-height:0;fill:#ffffff;fill-opacity:1;stroke:#ffffff;stroke-width:0;stroke-dasharray:none;stroke-opacity:1" /><tspan
       x="386.46472"
       y="470.17358"
       style="font-size:96px;line-height:0;fill:#ffffff;fill-opacity:1;stroke:#ffffff;stroke-width:0;stroke-dasharray:none;stroke-opacity:1"
       id="tspan32-3-3" /><tspan
       x="386.46472"
       y="470.17358"
       style="font-size:85.3333px;line-height:0;fill:#ffffff;fill-opacity:1;stroke:#ffffff;stroke-width:0;stroke-dasharray:none;stroke-opacity:1"
       dy="3.6099999"
       rotate="0 0 0 0 0 0 0 0 0 0 0"
       id="tspan33-8-0">Marc<tspan
   style="font-size:74.6667px"
   id="tspan61-1">h</tspan> <tspan
   style="font-size:80px"
   id="tspan62-2">22</tspan>nd</tspan><tspan
       x="386.46472"
       y="472.84021"
       style="font-size:96px;line-height:0;fill:#ffffff;fill-opacity:1;stroke:#ffffff;stroke-width:0;stroke-dasharray:none;stroke-opacity:1"
       dy="3.6099999"
       rotate="0 0 0 0 0 0 0 0 0 0 0 0 0 0 0 0 0 0 0 0 0 0 0 0 0 0 0 0 0 0 0"
       id="tspan34-6-0" /></text>
  <text
     xml:space="preserve"
     style="font-style:normal;font-variant:normal;font-weight:normal;font-stretch:normal;font-size:85.3333px;line-height:0;font-family:'Fonseca Script';-inkscape-font-specification:'Fonseca Script, Normal';font-variant-ligatures:normal;font-variant-caps:normal;font-variant-numeric:normal;font-variant-east-asian:normal;fill:#222222;fill-opacity:1;stroke:#e824ef;stroke-width:0;stroke-dasharray:none"
     x="973.67523"
     y="471.11691"
     id="text30-6-5-2"><tspan
       id="tspan30-8-8-7"
       x="973.67523"
       y="471.11691"
       style="font-size:85.3333px;line-height:0;fill:#ffffff;fill-opacity:1;stroke:#ffffff;stroke-width:0;stroke-dasharray:none;stroke-opacity:1" /><tspan
       x="973.67523"
       y="473.7836"
       style="font-size:96px;line-height:0;fill:#ffffff;fill-opacity:1;stroke:#ffffff;stroke-width:0;stroke-dasharray:none;stroke-opacity:1"
       id="tspan32-3-1-4" /><tspan
       x="973.67523"
       y="473.7836"
       style="font-size:85.3333px;line-height:0;fill:#ffffff;fill-opacity:1;stroke:#ffffff;stroke-width:0;stroke-dasharray:none;stroke-opacity:1"
       rotate="0 0 0 0 0 0 0 0 0 0 0 0 0 0 0 0 0 0 0"
       id="tspan33-8-1-5"><tspan
   style="font-size:72px;fill:#ffffff;fill-opacity:0"
   id="tspan59-5-0">S</tspan>he<tspan
   style="font-size:74.6667px"
   id="tspan63-0-2">l</tspan><tspan
   id="tspan66-9-5"
   style="font-size:76px">b</tspan>urne, <tspan
   style="font-size:80px"
   id="tspan67-5-1">V</tspan>ermon<tspan
   style="font-size:77.3333px"
   id="tspan68-2-7">t</tspan></tspan><tspan
       x="973.67523"
       y="477.11691"
       style="font-size:96px;line-height:0;fill:#ffffff;fill-opacity:1;stroke:#ffffff;stroke-width:0;stroke-dasharray:none;stroke-opacity:1"
       dy="3.6099999"
       rotate="0 0 0 0 0 0 0 0 0 0 0 0 0 0 0 0 0 0 0 0 0 0 0 0 0 0 0 0 0 0 0"
       id="tspan34-6-5-3" /></text>
  <text
     xml:space="preserve"
     style="font-style:normal;font-variant:normal;font-weight:normal;font-stretch:normal;font-size:85.3333px;line-height:0;font-family:'Fonseca Script';-inkscape-font-specification:'Fonseca Script, Normal';font-variant-ligatures:normal;font-variant-caps:normal;font-variant-numeric:normal;font-variant-east-asian:normal;fill:#222222;fill-opacity:1;stroke:#e824ef;stroke-width:0;stroke-dasharray:none"
     x="973.67487"
     y="465.46899"
     id="text30-6-5-2-3"><tspan
       id="tspan30-8-8-7-7"
       x="973.67487"
       y="465.46899"
       style="font-size:85.3333px;line-height:0;fill:#ffffff;fill-opacity:1;stroke:#ffffff;stroke-width:0;stroke-dasharray:none;stroke-opacity:1" /><tspan
       x="973.67487"
       y="468.13568"
       style="font-size:96px;line-height:0;fill:#ffffff;fill-opacity:1;stroke:#ffffff;stroke-width:0;stroke-dasharray:none;stroke-opacity:1"
       id="tspan32-3-1-4-6" /><tspan
       x="973.67487"
       y="468.13568"
       style="font-size:85.3333px;line-height:0;fill:#ffffff;fill-opacity:1;stroke:#ffffff;stroke-width:0;stroke-dasharray:none;stroke-opacity:1"
       rotate="0 0"
       id="tspan33-8-1-5-0"><tspan
         style="font-size:72px"
         id="tspan59-5-0-9">S</tspan></tspan><tspan
       x="973.67487"
       y="471.46899"
       style="font-size:96px;line-height:0;fill:#ffffff;fill-opacity:1;stroke:#ffffff;stroke-width:0;stroke-dasharray:none;stroke-opacity:1"
       dy="3.6099999"
       rotate="0 0 0 0 0 0 0 0 0 0 0 0 0 0 0 0 0 0 0 0 0 0 0 0 0 0 0 0 0 0 0"
       id="tspan34-6-5-3-0" /></text>
  <metadata
     id="metadata69">
    <rdf:RDF>
      <cc:Work
         rdf:about="">
        <dc:title>Snowbound, December 40th, Somewhere, Vermont.</dc:title>
      </cc:Work>
    </rdf:RDF>
  </metadata>
</svg>
