<svg id="a" xmlns="http://www.w3.org/2000/svg" viewBox="0 0 1920 527.61">
			<title>Snowbound, December 40th, Somewhere, Vermont.</title><defs><clipPath id="b"><path class="h" d="m86.61 285.62 170.64-95 45.52 36.04 38.89-10.43 140.36 60.7 205.79-61.65 72.25 22.84 39.66-38.01 141.31 67.33 130.88-51.21 25.63 21.89 109.99-38.01 116.65 67.33 82.51-45.52 83.46 55.96 106.21-77.77 52.16 57.85 37.76-19.84 46.65 42.6 64.49-58.8 53.9 63.7"></path></clipPath><clipPath id="c"><path class="h" d="M208.42 231.89c7.52 9.84 11.35 21.19 11.35 34.04 0 16.55-6.02 30.45-18.06 41.68s-26.86 16.9-44.34 16.9c-13.89 0-26.28-3.59-37.16-10.77-10.88-7.18-22-17.6-33.23-31.37L60.01 246.6l43.41-29.87-13.31-18.52c-11.92-11.92-17.83-25.35-17.83-40.29 0-16.32 6.14-30.1 18.29-41.21 12.16-11.11 26.86-16.67 44.11-16.67 9.15 0 18.64 2.08 28.48 6.25s18.64 9.96 26.51 17.37l25.12 35.54-32.99 35.08c2.43 3.01 4.63 6.37 6.6 9.96l20.03 27.67Zm-58.69-57.77c-.35-.12-1.97-1.04-4.86-2.66s-5.21-3.01-6.83-4.17-3.59-2.66-5.9-4.51-4.05-3.7-5.21-5.67-1.74-3.94-1.74-5.9c0-3.01.93-5.44 2.78-7.29s4.17-2.78 7.06-2.78c1.04 0 2.2.12 3.36.46s2.32.81 3.47 1.39 2.2 1.16 3.01 1.74 1.85 1.39 3.01 2.43 2.08 1.74 2.66 2.2 1.39 1.27 2.55 2.43l1.97 1.97 28.71-30.56c-13.43-12.62-29.52-18.99-48.39-18.99-15.86 0-29.41 5.09-40.75 15.28-11.35 10.19-17.02 22.81-17.02 37.86 0 19.8 11.69 36.58 35.08 50.48l5.79 3.13c3.59 2.2 6.37 4.05 8.34 5.44s4.51 3.24 7.52 5.67 5.33 4.86 6.83 7.41 2.32 4.98 2.32 7.41c0 3.36-1.27 6.02-3.82 7.99-2.55 1.97-5.56 2.89-9.03 2.89-2.66 0-5.21-.58-7.64-1.74s-4.63-2.89-6.71-5.21-3.7-4.28-4.98-6.02c-1.27-1.74-2.78-4.05-4.51-6.95-1.74-2.89-2.89-4.63-3.47-5.21l-35.77 24.89c9.61 12.16 19.45 21.42 29.52 27.67s21.65 9.38 34.73 9.38c16.44 0 30.33-5.33 41.68-15.86 6.9-6.41 11.7-13.71 14.41-21.92 1.74-5.29 2.61-10.95 2.61-16.98 0-12.16-3.82-22.92-11.35-32.3-7.52-9.38-17.13-17.37-28.83-23.85l-.58.46Zm-20.49 69.46c-6.6-4.75-12.5-10.07-17.6-15.98l8.57 12.04c2.66 2.55 5.67 3.82 9.03 3.82v.12Zm251.01-139.85 25.35 36.24v186.62h-10.42l-73.74-69.23v64.48h-58.81l-26.74-34.85V102.35h13.66l70.5 66.34v-64.95h60.2Zm-55.45 4.75v70.85l-77.1-72.24h-7.06v175.16h50.71v-69.92L370.77 287h4.75V108.49h-50.71Zm193.32-7.18c15.17 0 29.41 3.59 42.72 10.77 13.31 7.18 24.31 16.9 32.99 29.17l25.35 35.19c11.92 16.09 17.83 34.15 17.83 54.18 0 25.93-8.8 47.93-26.51 65.87-17.71 17.94-39.82 26.97-66.33 26.97-14.94 0-29.06-3.47-42.37-10.3-13.31-6.83-24.31-16.21-32.99-28.13l-26.86-35.43c-11.92-16.09-17.83-34.27-17.71-54.53 0-25.01 9.15-46.89 27.44-65.64s40.4-28.13 66.34-28.13h.11Zm-.11 4.75c-16.32 0-31.37 4.17-45.15 12.5-13.78 8.34-24.54 19.33-32.3 32.99-7.76 13.66-11.58 28.13-11.58 43.41 0 24.66 8.91 45.61 26.63 62.98 17.71 17.37 38.44 26.05 62.17 26.05 25.47 0 46.65-8.57 63.56-25.82 16.9-17.25 25.35-38.32 25.35-63.21s-8.92-45.61-26.74-62.98c-17.83-17.37-38.55-26.05-62.28-26.05l.35.12Zm-.35 141.01c-10.77 0-19.1-5.44-25.01-16.32-5.9-10.88-8.91-22.81-8.91-35.77s3.13-24.43 9.26-35.43c6.14-11 14.36-16.55 24.66-16.55 7.29 0 13.66 2.89 18.99 8.8 5.33 5.9 9.15 12.73 11.46 20.38 2.32 7.64 3.47 15.28 3.47 22.81 0 12.85-3.01 24.77-9.15 35.77-6.13 11-14.36 16.44-24.77 16.44v-.12Zm-2.78-4.86c6.83.93 12.73-1.16 17.83-6.14s8.8-11.11 11.11-18.41c2.32-7.29 3.47-14.82 3.47-22.57 0-3.36-.46-7.52-1.27-12.5-6.83 0-12.73 2.55-17.83 7.76-5.09 5.21-8.68 11.35-10.77 18.41-2.08 7.06-3.13 14.36-3.13 21.88 0 5.21.23 9.03.69 11.58h-.12Zm348.26-138.46 24.89 36.24-73.17 181.87H796.8L770.29 287l-5.21-12.39-18.75 47.23h-18.06l-26.51-34.85-73.98-183.26h64.95l25.58 36.24 5.67 14.7 20.61-50.94h16.67l25.58 36.24 5.67 14.7 20.61-50.94h50.01Zm-46.65 4.75-29.17 72.01-29.41-72.01h-9.96l-29.17 72.01-29.41-72.01h-54.53L705 282.26h12.39l28.02-69.69 28.13 69.69h12.39l70.16-173.77H816.5Zm80.42 178.98V104.2h65.18c7.52 0 14.7 1.85 21.53 5.56 6.83 3.7 12.62 8.68 17.37 15.05.46.46 1.04 1.27 1.85 2.43s3.36 4.86 7.76 11 9.72 13.43 15.86 22c6.14 8.57 9.26 17.83 9.26 27.78 0 5.67-1.16 11.69-3.59 17.94l12.85 17.37c8.22 11.23 12.27 23.39 12.27 36.47 0 16.9-6.02 31.37-18.06 43.41-12.04 12.04-26.63 18.41-43.88 18.99h-71.66l-26.74-34.73Zm102.34-112.76c4.05-7.06 6.14-14.47 6.25-22.23 0-11.92-4.4-22.23-13.08-30.79-8.68-8.57-18.75-12.85-30.22-12.85h-60.43v173.77h67.49c15.86-.58 29.52-6.6 40.87-17.94 11.35-11.35 17.02-24.89 17.02-40.52 0-9.61-2.43-18.75-7.29-27.44-4.86-8.68-11.69-16.09-20.61-22.11v.12Zm-41.21-32.3c5.21 0 7.87 4.75 7.87 14.24 0 3.94-.69 7.18-2.08 9.84-1.39 2.66-3.24 3.94-5.67 3.94h-5.9V142.3l5.79.12Zm-5.79 103.27v-51.05h6.83c4.75 0 8.8 2.43 12.27 7.29 3.47 4.86 5.21 10.88 5.21 18.06s-1.62 13.2-4.86 18.18-7.06 7.41-11.46 7.41l-7.99.12Zm201.24-144.36c15.17 0 29.41 3.59 42.72 10.77 13.31 7.18 24.31 16.9 32.99 29.17l25.35 35.19c11.92 16.09 17.83 34.15 17.83 54.18 0 25.93-8.8 47.93-26.51 65.87-17.71 17.94-39.82 26.97-66.34 26.97-14.93 0-29.06-3.47-42.37-10.3s-24.31-16.21-32.99-28.13l-26.86-35.43c-11.92-16.09-17.83-34.27-17.71-54.53 0-25.01 9.15-46.89 27.44-65.64s40.4-28.13 66.34-28.13h.12Zm-.12 4.75c-16.32 0-31.37 4.17-45.15 12.5-13.78 8.34-24.54 19.33-32.3 32.99-7.76 13.66-11.58 28.13-11.58 43.41 0 24.66 8.91 45.61 26.63 62.98 17.71 17.37 38.44 26.05 62.17 26.05 25.47 0 46.65-8.57 63.56-25.82 16.9-17.25 25.35-38.32 25.35-63.21s-8.91-45.61-26.74-62.98c-17.83-17.37-38.55-26.05-62.28-26.05l.35.12Zm-.35 141.01c-10.77 0-19.1-5.44-25.01-16.32-5.9-10.88-8.91-22.81-8.91-35.77s3.13-24.43 9.26-35.43c6.14-11 14.36-16.55 24.66-16.55 7.29 0 13.66 2.89 18.99 8.8 5.33 5.9 9.15 12.73 11.46 20.38 2.32 7.64 3.47 15.28 3.47 22.81 0 12.85-3.01 24.77-9.15 35.77-6.14 11-14.36 16.44-24.77 16.44v-.12Zm-2.78-4.86c6.83.93 12.73-1.16 17.83-6.14 5.09-4.98 8.8-11.11 11.11-18.41 2.32-7.29 3.47-14.82 3.47-22.57 0-3.36-.46-7.52-1.27-12.5-6.83 0-12.73 2.55-17.83 7.76-5.09 5.21-8.68 11.35-10.77 18.41-2.08 7.06-3.13 14.36-3.13 21.88 0 5.21.23 9.03.69 11.58h-.12Zm174.75 50.36c-17.83-23.27-26.86-35.08-26.97-35.43-7.29-10.3-11.46-21.53-12.5-33.69V103.75h60.2l25.47 36.24v94.35c2.2-2.66 3.47-5.79 3.7-9.38V103.87h53.37l25.35 36.24v119.01c-.93 16.79-8.34 31.6-22.11 44.46-13.78 12.85-29.52 19.22-47.23 19.22-11.69 0-22.81-2.66-33.34-7.99-10.53-5.33-19.22-12.73-26.05-22.11l.12-.12Zm54.64-183.84v116.35c-.12 5.21-2.08 9.72-5.79 13.43-3.7 3.7-8.22 5.56-13.66 5.56s-9.72-1.85-13.43-5.56c-3.7-3.7-5.67-8.22-5.79-13.43V108.74h-50.71v114.73c1.27 16.9 8.68 31.03 22.11 42.49s28.71 17.13 45.73 17.13 31.37-6.02 44.46-18.06c13.08-12.04 20.03-25.93 20.95-41.79V108.51l-43.88.23Zm242.38-4.98 25.35 36.24v186.62h-10.42l-73.74-69.23v64.48h-58.81l-26.74-34.85V102.35h13.66l70.5 66.34v-64.95h60.2Zm-55.45 4.75v70.85l-77.1-72.24h-7.06v175.16h50.71v-69.92l79.42 74.67h4.75V108.49h-50.71Zm172.61-4.51c14.01.35 27.21 3.59 39.48 9.72 12.27 6.14 22.81 14.47 31.49 25.01.81 1.04 1.97 2.55 3.47 4.63 1.5 2.08 4.51 6.25 8.91 12.5s9.84 13.78 16.32 22.46c11.58 15.63 17.37 33.23 17.25 52.79 0 15.63-3.94 30.45-11.92 44.34s-18.99 25.12-32.99 33.69c-14.01 8.57-29.29 12.85-45.84 12.85h-62.63l-26.74-34.85V103.85l63.21.12Zm-58.46 4.63V282.4h58.46c15.63 0 30.22-4.05 43.64-12.16 13.43-8.1 23.96-18.87 31.6-32.18 7.64-13.31 11.46-27.44 11.46-42.49 0-23.96-8.57-44.34-25.7-61.01-17.13-16.67-37.51-25.35-61.24-25.93h-58.23Zm50.48 138V144.41h5.21c9.96 0 18.41 5.09 25.35 15.4 6.95 10.3 10.42 22.23 10.42 35.77s-3.47 26.05-10.53 36-15.51 14.93-25.35 14.93l-5.09.12Zm30.33-23.39c4.05-8.22 6.14-17.37 6.14-27.55 0-4.05-.35-7.76-.93-11.11-2.2-.35-3.94-.46-5.21-.46v39.13Z"></path></clipPath><style>.d,.e{fill:#fff}.e{fill-rule:evenodd}.h{fill:none}.j{fill:#6cf}</style></defs><path style="fill:#338eda" d="M0 7.61h1920v520H0z"></path><path class="d" d="M434.54 399.09c2.5.04 5.13.6 7.95 1.69s5.59 2.71 8.3 4.85 5.1 4.64 7.21 7.49 3.73 6.22 4.85 10.12 1.48 7.98 1.09 12.23c-.53 7.1-2.43 13.64-5.7 19.62s-7.88 10.9-13.78 14.77-12.59 5.94-20.04 6.22c-4.39.18-9.18-1.05-14.31-3.73-4.46 3.76-9.07 5.62-13.82 5.59-3.13 0-5.94-.95-8.47-2.88s-3.8-4.22-3.8-6.89c0-2.92 1.23-5.52 3.69-7.77s5.41-3.38 8.82-3.38c1.34 0 2.64.25 3.9.77s2.29 1.05 3.02 1.62 1.79 1.41 3.13 2.57 2.32 1.97 2.92 2.43c1.55-4.39 2.85-9.49 3.94-15.29s2.14-12.16 3.16-19.09 1.9-12.23 2.67-15.96c.46-2.5 1.62-3.76 3.45-3.8.32 0 .74-.04 1.23-.11s.95-.14 1.37-.18.84-.07 1.3-.11.84-.04 1.12 0 .56.14.81.32.35.42.32.77-.11.81-.25 1.41c-.95 3.2-2.18 8.72-3.73 16.56s-3.2 15.26-4.96 22.22-3.66 12.41-5.66 16.35c3.06 1.65 6.36 2.46 9.88 2.46 5.59 0 10.72-1.72 15.43-5.17s8.33-7.8 10.86-13.04 3.8-10.69 3.8-16.31c0-2.88-.28-5.73-.84-8.54s-1.55-5.62-2.95-8.44-3.13-5.24-5.2-7.28-4.82-3.59-8.19-4.61-7.14-1.3-11.32-.84c-3.02.39-6.05 1.62-9.04 3.73s-5.27 4.61-6.89 7.52-2 5.62-1.2 8.12c.39 1.48.63 2.92.74 4.32s-.32 2.6-1.27 3.59-2.39 1.48-4.32 1.48c-2.21 0-3.83-1.16-4.85-3.48s-1.3-4.85-.81-7.59c.81-4.22 2.53-7.98 5.17-11.29s5.73-5.87 9.32-7.7 7.24-3.2 11-4.11 7.45-1.34 11.07-1.23h-.14Zm-37.86 72.88c3.3 0 6.22-.84 8.72-2.57-.53-.39-1.37-1.2-2.53-2.39s-2.29-2.21-3.41-3.02-2.18-1.23-3.2-1.23c-1.65 0-2.92.53-3.8 1.62s-1.3 2.25-1.3 3.48c.11 1.23.7 2.21 1.83 2.99s2.39 1.16 3.76 1.16l-.07-.04Zm95.9-21.51c.42 0 .7.28.81.84s-.04 1.48-.46 2.74-1.12 2.71-2.14 4.32c-2.64 4.46-5.84 7.42-9.6 8.89s-7.38 1.55-10.86.25c-7-2.5-9.21-7.88-6.64-16.17 2.29-7.59 6.68-12.02 13.18-13.32 2.5-.46 4.68-.11 6.57 1.09s2.81 2.92 2.71 5.17c-.18 2.57-1.51 5.03-4.01 7.38s-5.1 3.52-7.8 3.52c-1.58.18-3.2-.28-4.85-1.37-.81 3.13.14 5.77 2.85 7.91 1.2.95 2.71 1.48 4.5 1.58s3.83-.49 6.08-1.76 4.25-3.23 5.98-5.87c.28-.42.6-.95.95-1.58s.63-1.12.84-1.48.46-.7.7-1.05.49-.63.7-.81.42-.25.67-.25l-.18-.04Zm-13.29-7.8c-2.5.63-4.68 2.25-6.54 4.82-.91 1.44-.74 2.36.49 2.74.95.25 2 .04 3.13-.63s2.11-1.62 2.95-2.85c.63-.74.95-1.58.98-2.53s-.32-1.48-1.05-1.58l.04.04Z"></path><path class="d" d="M507.7 450.32c0-.63.39-1.41 1.16-2.36s1.3-1.72 1.55-2.32c.39-1.02.42-1.9.11-2.64s-.88-1.09-1.72-1.09c-1.69 0-3.76 1.41-6.22 4.18s-3.97 5.34-4.57 7.7c-.81 3.2-.6 5.62.67 7.28s3.23 2.5 5.87 2.5c1.79 0 4.15-.77 7.03-2.32s5.17-3.52 6.82-5.94c.42-.63.91-1.44 1.51-2.43s1.05-1.69 1.37-2.07.67-.6 1.05-.6c.42 0 .67.28.74.84s-.11 1.48-.53 2.74-1.12 2.71-2.14 4.29c-1.97 3.06-4.54 5.55-7.73 7.49s-6.19 2.92-8.96 2.92c-2.07 0-4.01-.28-5.84-.84s-3.48-1.48-4.96-2.71-2.39-2.81-2.78-4.75-.21-4.29.53-7.03c1.48-4.57 4.08-8.37 7.8-11.39s7.45-4.54 11.14-4.54c2 0 3.62.6 4.82 1.83s1.93 2.43 2.21 3.59.39 2.11.28 2.85c-.14 1.97-.88 3.55-2.21 4.78s-2.67 1.83-4.01 1.83c-.91 0-1.62-.25-2.11-.7s-.74-.91-.74-1.34l-.14.25Z"></path><path class="d" d="M548.69 450.46c.42 0 .7.28.81.84s-.04 1.48-.46 2.74-1.12 2.71-2.14 4.32c-2.64 4.46-5.84 7.42-9.6 8.89s-7.38 1.55-10.86.25c-7-2.5-9.21-7.88-6.64-16.17 2.29-7.59 6.68-12.02 13.18-13.32 2.5-.46 4.68-.11 6.57 1.09s2.81 2.92 2.71 5.17c-.18 2.57-1.51 5.03-4.01 7.38s-5.1 3.52-7.8 3.52c-1.58.18-3.2-.28-4.85-1.37-.81 3.13.14 5.77 2.85 7.91 1.2.95 2.71 1.48 4.5 1.58s3.83-.49 6.08-1.76 4.25-3.23 5.98-5.87c.28-.42.6-.95.95-1.58s.63-1.12.84-1.48.46-.7.7-1.05.49-.63.7-.81.42-.25.67-.25l-.18-.04Zm-13.29-7.8c-2.5.63-4.68 2.25-6.54 4.82-.91 1.44-.74 2.36.49 2.74.95.25 2 .04 3.13-.63s2.11-1.62 2.95-2.85c.63-.74.95-1.58.98-2.53s-.32-1.48-1.05-1.58l.04.04Z"></path><path class="d" d="M594.11 455.06c.63-.81 1.2-1.09 1.65-.81s.39.95-.25 2.04c-.11.25-.39.98-.88 2.21s-.98 2.36-1.48 3.38-1.12 2.11-1.9 3.3-1.69 2.11-2.74 2.78-2.18.98-3.41.98c-2.6 0-4.54-.77-5.77-2.32s-1.58-3.55-1.05-5.98c.14-.67.42-1.83.84-3.45s.77-3.02 1.02-4.22.49-2.43.7-3.69.21-2.25.04-2.99-.53-1.09-1.09-1.09c-.77 0-3.2 3.45-7.28 10.34s-6.61 10.65-7.63 11.29l-.49.28c-.46.46-.88.7-1.23.74-.91.25-1.34-.98-1.3-3.66 0-1.02.07-1.93.21-2.74.11-.42.39-1.58.88-3.45s.84-3.38 1.09-4.5.49-2.43.74-3.9.28-2.6.11-3.34-.53-1.12-1.05-1.12-1.51 1.16-2.99 3.48-3.2 5.27-5.2 8.86-3.48 6.08-4.43 7.52c-1.02 2.43-2.64 3.66-4.85 3.66-.42 0-.7-.25-.84-.74s-.14-1.23-.04-2.18.28-1.93.49-2.95.46-2.29.7-3.76.46-2.81.6-3.97c.14-1.23.35-2.95.6-5.13s.42-3.59.53-4.25c.04-.14.11-.6.18-1.41s.14-1.37.25-1.72.28-.77.49-1.3.53-.91.91-1.12.84-.32 1.37-.32c.32 0 .74 0 1.27-.04s.91-.07 1.16-.11.6-.04 1.02 0 .7.14.81.28.28.35.53.63.32.67.21 1.16-.18 1.05-.21 1.72c-.42 2.07-1.09 4.78-2 8.16 1.69-3.13 3.52-5.91 5.52-8.33s3.87-3.87 5.59-4.32c3.2-.63 5.27-.07 6.22 1.69s1.2 4.25.7 7.52c3.62-5.62 6.64-8.68 9.07-9.21 4.18-.88 6.54.53 7.07 4.18s.14 7.17-1.2 10.51c-.04.28-.07.49-.11.67-1.3 5.59-1.93 8.51-1.93 8.75.25.81.7 1.27 1.37 1.37.63 0 1.48-.63 2.5-1.93s2.11-2.88 3.23-4.75 1.76-2.85 1.86-2.95l-.18.25Z"></path><path class="d" d="M617.67 438.5c2.6.39 4.57 1.37 5.94 2.95s2.04 3.45 2.04 5.59-.35 4.43-1.02 6.86c-1.34 4.25-3.52 7.73-6.5 10.44s-6.22 4.08-9.7 4.08c-1.58 0-3.02-.21-4.36-.63s-2.39-.95-3.16-1.58-1.37-1.23-1.79-1.79-.63-1.02-.67-1.37c-1.2 2.92-2.88 4.39-5.03 4.39-.39 0-.63-.28-.74-.84s-.07-1.51.11-2.81.39-2.64.63-3.97.56-3.2.98-5.59.77-4.5 1.05-6.33c.39-2.6.98-6.29 1.83-11.07s1.65-9.25 2.43-13.39 1.48-8.02 2.14-11.6 1.02-5.45 1.05-5.59c.39-2.5 1.51-3.76 3.38-3.8.32 0 .74-.04 1.23-.11s.91-.14 1.27-.18.74-.07 1.16-.11.77-.04 1.02 0 .49.14.7.32.32.46.28.81-.14.81-.28 1.37c-.32 1.2-1.05 4.43-2.21 9.7s-2.53 11.64-4.11 19.09-2.64 12.41-3.16 14.91c1.97-2.99 4.36-5.45 7.17-7.38s5.66-2.71 8.54-2.32l-.21-.04Zm-1.12 15.75c.95-2.6 1.27-4.96.95-7.03s-1.27-3.13-2.88-3.13c-1.05 0-2.25.32-3.59.95s-2.74 1.58-4.22 2.85-2.92 3.02-4.29 5.31-2.46 4.89-3.27 7.8c.77-.77 1.72-.95 2.81-.49.32.11.98.7 2 1.79s2.21 1.65 3.55 1.65c1.69 0 3.38-.95 5.06-2.85s2.99-4.18 3.9-6.89l-.04.04Zm39.33-3.79c.42 0 .7.28.81.84s-.04 1.48-.46 2.74-1.12 2.71-2.14 4.32c-2.64 4.46-5.84 7.42-9.6 8.89s-7.38 1.55-10.86.25c-7-2.5-9.21-7.88-6.64-16.17 2.29-7.59 6.68-12.02 13.18-13.32 2.5-.46 4.68-.11 6.57 1.09s2.81 2.92 2.71 5.17c-.18 2.57-1.51 5.03-4.01 7.38s-5.1 3.52-7.8 3.52c-1.58.18-3.2-.28-4.85-1.37-.81 3.13.14 5.77 2.85 7.91 1.2.95 2.71 1.48 4.5 1.58s3.83-.49 6.08-1.76 4.25-3.23 5.98-5.87c.28-.42.6-.95.95-1.58s.63-1.12.84-1.48.46-.7.7-1.05.49-.63.7-.81.42-.25.67-.25l-.18-.04Zm-13.29-7.8c-2.5.63-4.68 2.25-6.54 4.82-.91 1.44-.74 2.36.49 2.74.95.25 2 .04 3.13-.63s2.11-1.62 2.95-2.85c.63-.74.95-1.58.98-2.53s-.32-1.48-1.05-1.58l.04.04Z"></path><path class="d" d="M672.33 438.29c1.3 0 2.36.46 3.2 1.37s1.3 2.14 1.41 3.73c.11 1.93-.63 4.01-2.18 6.26s-3.09 3.38-4.61 3.38c-.6 0-1.02-.21-1.3-.63s-.39-.91-.28-1.44c.11-.39.21-.88.35-1.51s.25-1.12.32-1.48.14-.77.25-1.27.18-.88.21-1.16.04-.56 0-.81-.14-.42-.28-.53-.32-.18-.56-.18c-1.16 0-2.39.7-3.73 2.14s-2.53 3.55-3.59 6.36c-.18.81-.42 1.93-.77 3.41s-.6 2.6-.77 3.41-.42 1.76-.77 2.88-.67 2-.95 2.64-.63 1.27-1.02 1.9-.81 1.09-1.3 1.37-1.05.42-1.69.42c-.74 0-1.09-.74-1.09-2.21-.04-.88-.04-1.83.04-2.85s.25-2.32.49-3.94.46-2.99.63-4.08.49-2.95.95-5.55.81-4.64 1.05-6.12c0-.14.04-.42.11-.84s.14-.7.18-.88.11-.42.21-.74.21-.56.32-.74.21-.39.35-.6.32-.39.53-.49.46-.21.74-.28.63-.11 1.02-.11c.46 0 .98-.07 1.58-.18s1.09-.21 1.44-.32.74-.18 1.16-.21.7.04.81.21.21.49.32.95.04 1.12-.21 2c-.04.18-.11.6-.21 1.23s-.21 1.09-.32 1.37c.95-1.23 1.72-2.18 2.29-2.81s1.41-1.34 2.5-2.07 2.18-1.12 3.23-1.12l-.04.11Zm64.2-31.71c2.21 0 3.87.35 4.96 1.09s1.2 2 .32 3.83c-1.44 2.88-3.59 9.6-6.43 20.11-1.16 4.32-2.95 11.78-5.38 22.36-.18.88-.42 2.21-.7 4.01s-.53 3.16-.74 4.11-.53 2-.91 3.16-.84 2-1.41 2.53-1.23.81-2.04.84c-1.05.11-1.58-1.2-1.58-3.87.04-2.25.67-7.66 1.9-16.21.32-2.6.74-5.41 1.27-8.44-3.94 9.35-8.4 14.03-13.39 14.06-3.45 0-6.22-1.48-8.37-4.39s-2.74-7.31-1.79-13.18c.6-3.41 1.44-6.93 2.53-10.58s2.14-6.89 3.16-9.67 1.58-4.43 1.72-4.92c.46-2.14.95-3.48 1.48-4.01s1.27-.77 2.21-.74h3.48c.49 0 .84.04 1.05.07s.53.11.91.21.6.21.67.35.25.32.49.56.32.53.21.84-.14.67-.14 1.05c-.11.39-.7 1.9-1.79 4.54s-2.32 5.98-3.73 10.05-2.57 8.19-3.48 12.3c-.67 2.88-.84 5.13-.56 6.79s.77 2.81 1.44 3.48 1.48.98 2.43.98c1.02 0 2.25-.63 3.66-1.9s3.09-3.62 5.03-7.03 3.69-7.63 5.27-12.62c0-.04 0-.07.04-.11s.04-.07.04-.11c1.34-6.71 2.46-11.71 3.34-14.98.6-2.99 2.18-4.46 4.75-4.46l.11-.14Zm21.13 61.74c-3.55 0-6.57-.91-9.04-2.78s-4.22-4.25-5.31-7.21-1.83-6.26-2.21-9.91-.28-7.31.32-10.97c.28-5.27 1.48-10.23 3.55-14.87s5.06-8.47 8.93-11.5 8.19-4.54 12.97-4.54c3.41 0 6.36.81 8.89 2.43s4.46 3.76 5.77 6.47 2.18 5.66 2.64 8.86.49 6.5.11 9.95c-.63 5.38-1.86 10.27-3.69 14.7s-4.01 8.02-6.5 10.79-5.17 4.92-8.02 6.43-5.66 2.25-8.44 2.25l.04-.11Zm18.84-33.64c.32-2.14.35-4.46.07-6.93s-.74-4.75-1.37-6.86-1.76-3.87-3.38-5.27-3.59-2.11-5.94-2.11c-3.55 0-6.96 2.43-10.23 7.28s-5.2 10.27-5.8 16.28c-.91 7.7-.46 13.57 1.37 17.65s4.29 6.12 7.42 6.12c2.78 0 5.52-1.44 8.19-4.36s4.85-6.36 6.54-10.34 2.71-7.8 3.09-11.5l.04.04Z"></path><path class="d" d="M792.11 457.45c-.42 1.69-.56 3.16-.42 4.46s.84 1.93 2.07 1.93c2.25 0 4.82-2.25 7.7-6.79 2.29-3.41 3.9-5.1 4.85-5.1 1.16 0 .25 2.64-2.71 7.91-3.3 5.77-7.17 8.65-11.6 8.65-2.88 0-4.75-1.48-5.62-4.39-.42-1.3-.6-2.78-.56-4.43 0-.63.49-4.15 1.51-10.58.77-5.27 1.55-9.98 2.36-14.17l-5.31.42c-.63.04-1.16-.21-1.58-.77s-.74-1.23-.98-2c-.77-1.23-.49-1.86.88-1.86l7.84-.14c.6-3.27 1.23-6.79 1.9-10.55s1.2-6.79 1.62-9.07.67-3.52.7-3.66c.46-2.57 1.62-3.83 3.45-3.8.42 0 .98-.07 1.72-.18s1.3-.21 1.69-.28.81-.04 1.3.07.74.35.74.74-.04.98-.14 1.76c-.74 2.21-2.57 10.44-5.48 24.68.74-.04 1.72-.07 2.95-.07 3.41-.18 5.84-.21 7.24-.11s2.29.49 2.6 1.2c.18.39.04.74-.42 1.05s-1.23.6-2.32.84-2.36.42-3.83.56-3.23.28-5.31.42l-1.9.14c-.39 1.79-.91 4.22-1.62 7.28s-1.34 5.87-1.9 8.44-1.05 4.99-1.48 7.28l.07.11Z"></path><path class="d" d="M835.7 453.51c.63-.88 1.23-1.2 1.79-.91s.6 1.02.07 2.21c-.04.11-.21.53-.56 1.3s-.63 1.41-.88 1.93-.6 1.27-1.09 2.21-.95 1.79-1.37 2.5-.95 1.44-1.55 2.21-1.16 1.41-1.72 1.9-1.2.91-1.9 1.27-1.37.53-2.04.53c-2.71 0-4.75-.81-6.12-2.43s-1.83-3.69-1.37-6.19c.14-.6.46-1.79.91-3.62s.84-3.38 1.12-4.61.56-2.6.81-4.08.28-2.6.11-3.41-.53-1.2-1.09-1.2c-.53 0-1.48 1.05-2.81 3.13s-3.13 5.1-5.38 9.07-3.69 6.5-4.32 7.56c-.6 1.55-1.27 2.71-2.04 3.48s-1.79 1.16-3.09 1.16c-.39 0-.63-.28-.74-.84s-.07-1.51.11-2.81.39-2.64.63-3.97.56-3.2.98-5.59.77-4.5 1.05-6.33c.39-2.6.98-6.29 1.83-11.07s1.65-9.25 2.43-13.39 1.48-8.02 2.11-11.6.98-5.45 1.02-5.59c.39-2.5 1.51-3.76 3.38-3.8.32 0 .74-.04 1.23-.11l1.23-.18c.32-.04.7-.07 1.12-.11s.77-.04 1.02 0 .49.14.7.32.28.46.25.81-.14.81-.28 1.37c-.42 1.2-1.23 4.68-2.46 10.44s-2.6 12.23-4.08 19.41-2.57 12.2-3.23 15.05c4.39-7.84 8.16-12.06 11.25-12.66 4.25-.88 6.68.49 7.24 4.08s.18 7.14-1.16 10.65c-.11.46-.18.81-.21 1.05-.32 1.48-.74 3.3-1.27 5.52-.81 3.13-1.09 4.92-.81 5.38.18.32.6.49 1.23.49.67 0 1.55-.74 2.64-2.21s2.25-3.23 3.45-5.27 1.86-3.13 1.97-3.27l-.11.21Zm181.52-26.05c0-.46.35-.91 1.05-1.37s1.51-.88 2.39-1.27 1.69-1.05 2.39-1.97 1.05-2.07 1.05-3.48c0-4.54-1.55-8.16-4.61-10.83s-7.17-4.01-12.34-4.01c-4.54 0-8.58 1.76-12.16 5.27s-5.38 7.42-5.38 11.74c0 1.58.18 3.02.53 4.32s.91 2.5 1.69 3.59 1.51 2.04 2.21 2.81 1.76 1.58 3.16 2.46 2.5 1.55 3.27 1.97 2 1.05 3.73 1.93 2.92 1.48 3.59 1.79c6.15 3.34 10.58 6.29 13.29 8.86s4.08 5.59 4.08 9.07c0 3.94-1.27 7.45-3.8 10.51s-5.66 5.34-9.42 6.89-7.66 2.32-11.71 2.32c-2.36 0-4.54-.81-6.54-2.39s-2.99-3.59-2.99-6.01c0-3.06 1.55-6.15 4.64-9.28s6.33-5.52 9.67-7.17c3.83-1.93 5.62-2.29 5.34-1.05-.32 1.23-2.25 3.3-5.77 6.19-.14.14-.28.28-.42.39-3.94 3.27-6.33 6.26-7.14 8.96-.42 1.44-.11 2.57.95 3.38s2.46 1.23 4.18 1.23c4.22 0 7.77-1.23 10.65-3.66s4.32-5.7 4.32-9.81c0-.77-.18-1.55-.53-2.32s-.91-1.51-1.72-2.21-1.51-1.34-2.14-1.9-1.55-1.2-2.78-1.9-2.11-1.2-2.67-1.51-1.44-.77-2.67-1.41-1.9-.98-2-1.02c-7.1-3.52-12.38-7.21-15.82-11.04s-5.17-8.4-5.17-13.71c0-3.97 1.27-7.7 3.8-11.14s5.77-6.15 9.67-8.09 7.91-2.99 12.02-3.13c3.02-.11 6.01.21 8.96.98s5.66 1.9 8.12 3.38 4.46 3.45 6.01 5.91 2.32 5.2 2.32 8.23c0 2.14-.42 4.04-1.23 5.7s-1.79 2.92-2.95 3.76-2.29 1.48-3.38 1.86-2.07.6-2.95.6c-1.58 0-2.74-.18-3.52-.49s-1.16-1.02-1.16-2.07l-.14.14Zm46.61 12.41c.67-.28.84-.04.53.77-.14.32-.39.81-.7 1.48-.18.32-.28.53-.28.63-1.37 2.85-4.25 5.41-8.65 7.7 0 4.36-1.65 8.54-4.99 12.52s-7.24 5.98-11.71 5.98c-2.57 0-4.64-.74-6.26-2.21s-2.64-3.13-3.09-4.96-.6-3.66-.42-5.48c.32-2.71 1.2-5.45 2.6-8.19s3.41-5.17 6.01-7.24 5.41-3.09 8.44-3.09c3.34 0 5.84 1.51 7.49 4.54.88.74 1.41 1.83 1.58 3.27 1.37-.42 3.23-1.44 5.55-3.09s3.59-2.53 3.83-2.64l.07.04Zm-23.87 23.77c2.25 0 4.22-1.3 5.94-3.87s2.92-5.2 3.59-7.91c-1.44-.11-2.5-1.02-3.2-2.74s-.63-3.34.21-4.85c-.46-.46-1.3-.7-2.5-.74-1.72 0-3.41 1.12-5.1 3.38s-2.85 5.13-3.52 8.61c-.42 2.64-.11 4.64.91 5.98s2.29 2 3.76 2l-.11.14Z"></path><path class="d" d="M1107.22 455.06c.63-.81 1.2-1.09 1.65-.81s.39.95-.25 2.04c-.11.25-.39.98-.88 2.21s-.98 2.36-1.48 3.38-1.12 2.11-1.9 3.3-1.69 2.11-2.74 2.78-2.18.98-3.41.98c-2.6 0-4.54-.77-5.77-2.32s-1.58-3.55-1.05-5.98c.14-.67.42-1.83.84-3.45s.77-3.02 1.02-4.22.49-2.43.7-3.69.21-2.25.04-2.99-.53-1.09-1.09-1.09c-.77 0-3.2 3.45-7.28 10.34s-6.61 10.65-7.63 11.29l-.49.28c-.46.46-.88.7-1.23.74-.91.25-1.34-.98-1.3-3.66 0-1.02.07-1.93.21-2.74.11-.42.39-1.58.88-3.45s.84-3.38 1.09-4.5.49-2.43.74-3.9.28-2.6.11-3.34-.53-1.12-1.05-1.12-1.51 1.16-2.99 3.48-3.2 5.27-5.2 8.86-3.48 6.08-4.43 7.52c-1.02 2.43-2.64 3.66-4.85 3.66-.42 0-.7-.25-.84-.74s-.14-1.23-.04-2.18.28-1.93.49-2.95.46-2.29.7-3.76.46-2.81.6-3.97c.14-1.23.35-2.95.6-5.13s.42-3.59.53-4.25c.04-.14.11-.6.18-1.41s.14-1.37.25-1.72.28-.77.49-1.3.53-.91.91-1.12.84-.32 1.37-.32c.32 0 .74 0 1.27-.04s.91-.07 1.16-.11.6-.04 1.02 0 .7.14.81.28.28.35.53.63.32.67.21 1.16-.18 1.05-.21 1.72c-.42 2.07-1.09 4.78-2 8.16 1.69-3.13 3.52-5.91 5.52-8.33s3.87-3.87 5.59-4.32c3.2-.63 5.27-.07 6.22 1.69s1.2 4.25.7 7.52c3.62-5.62 6.64-8.68 9.07-9.21 4.18-.88 6.54.53 7.07 4.18s.14 7.17-1.2 10.51c-.04.28-.07.49-.11.67-1.3 5.59-1.93 8.51-1.93 8.75.25.81.7 1.27 1.37 1.37.63 0 1.48-.63 2.5-1.93s2.11-2.88 3.23-4.75 1.76-2.85 1.86-2.95l-.18.25Z"></path><path class="d" d="M1136.04 450.46c.42 0 .7.28.81.84s-.04 1.48-.46 2.74-1.12 2.71-2.14 4.32c-2.64 4.46-5.84 7.42-9.6 8.89s-7.38 1.55-10.86.25c-7-2.5-9.21-7.88-6.64-16.17 2.29-7.59 6.68-12.02 13.18-13.32 2.5-.46 4.68-.11 6.57 1.09s2.81 2.92 2.71 5.17c-.18 2.57-1.51 5.03-4.01 7.38s-5.1 3.52-7.8 3.52c-1.58.18-3.2-.28-4.85-1.37-.81 3.13.14 5.77 2.85 7.91 1.2.95 2.71 1.48 4.5 1.58s3.83-.49 6.08-1.76 4.25-3.23 5.98-5.87c.28-.42.6-.95.95-1.58s.63-1.12.84-1.48.46-.7.7-1.05.49-.63.7-.81.42-.25.67-.25l-.18-.04Zm-13.29-7.8c-2.5.63-4.68 2.25-6.54 4.82-.91 1.44-.74 2.36.49 2.74.95.25 2 .04 3.13-.63s2.11-1.62 2.95-2.85c.63-.74.95-1.58.98-2.53s-.32-1.48-1.05-1.58l.04.04Z"></path><path class="d" d="M1176.09 440.61c0 2.07-.32 4.57-.98 7.52s-1.62 5.98-2.88 9.11-3.02 5.77-5.27 7.91-4.71 3.23-7.42 3.23c-4.99 0-7.66-2.88-7.98-8.65-.11-.74-.14-2.21-.14-4.46-2.39 8.75-6.29 13.11-11.67 13.11-4.68 0-6.79-2.88-6.33-8.65.04-1.23.21-2.78.49-4.64s.6-3.52.91-4.96.67-3.09 1.09-4.99.67-3.06.77-3.52l.21-.84c.11-.42.18-.7.21-.81l.21-.63c.11-.32.21-.53.32-.63s.28-.25.49-.42.46-.32.7-.42.56-.18.91-.21c1.93-.39 3.45-.32 4.57.21s1.37 1.76.74 3.69c-.28.91-.63 2.04-1.05 3.38s-.77 2.5-1.05 3.45-.6 2.04-.98 3.27-.7 2.29-.91 3.16-.42 1.79-.63 2.74-.35 1.72-.39 2.36-.04 1.23 0 1.79.18.98.39 1.27.53.42.91.42c1.79 0 3.87-2.07 6.26-6.22s3.8-8.4 4.25-12.73c0-.11.04-.42.14-.98s.18-.91.21-1.02.11-.35.25-.74.32-.63.49-.74.42-.25.74-.39.7-.21 1.16-.21c.32 0 .74-.04 1.27-.07s.98-.07 1.34-.11.77-.07 1.23-.07.81.04 1.02.14.46.25.7.46.35.49.32.88-.14.88-.32 1.51c-.95 3.02-1.34 7.14-1.16 12.38s.88 7.84 2.07 7.84c1.55 0 3.13-1.34 4.71-4.04s2.85-5.91 3.8-9.6 1.44-7.07 1.44-10.09c0-.63.42-1.05 1.27-1.23s1.69-.07 2.57.35 1.3 1.09 1.3 2l-.28-.11Zm33.22 12.9c.63-.88 1.23-1.2 1.79-.91s.6 1.02.07 2.21c-.04.11-.21.53-.56 1.3s-.63 1.41-.88 1.93-.6 1.27-1.09 2.21-.95 1.79-1.37 2.5-.95 1.44-1.55 2.21-1.16 1.41-1.72 1.9-1.2.91-1.9 1.27-1.37.53-2.04.53c-2.71 0-4.75-.81-6.12-2.43s-1.83-3.69-1.37-6.19c.14-.6.46-1.79.91-3.62s.84-3.38 1.12-4.61.56-2.6.81-4.08.28-2.6.11-3.41-.53-1.2-1.09-1.2c-.53 0-1.48 1.05-2.81 3.13s-3.13 5.1-5.38 9.07-3.69 6.5-4.32 7.56c-.6 1.55-1.27 2.71-2.04 3.48s-1.79 1.16-3.09 1.16c-.39 0-.63-.28-.74-.84s-.07-1.51.11-2.81.39-2.64.63-3.97.56-3.2.98-5.59.77-4.5 1.05-6.33c.39-2.6.98-6.29 1.83-11.07s1.65-9.25 2.43-13.39 1.48-8.02 2.11-11.6.98-5.45 1.02-5.59c.39-2.5 1.51-3.76 3.38-3.8.32 0 .74-.04 1.23-.11l1.23-.18c.32-.04.7-.07 1.12-.11s.77-.04 1.02 0 .49.14.7.32.28.46.25.81-.14.81-.28 1.37c-.42 1.2-1.23 4.68-2.46 10.44s-2.6 12.23-4.08 19.41-2.57 12.2-3.23 15.05c4.39-7.84 8.16-12.06 11.25-12.66 4.25-.88 6.68.49 7.24 4.08s.18 7.14-1.16 10.65c-.11.46-.18.81-.21 1.05-.32 1.48-.74 3.3-1.27 5.52-.81 3.13-1.09 4.92-.81 5.38.18.32.6.49 1.23.49.67 0 1.55-.74 2.64-2.21s2.25-3.23 3.45-5.27 1.86-3.13 1.97-3.27l-.11.21Z"></path><path class="d" d="M1237.5 450.46c.42 0 .7.28.81.84s-.04 1.48-.46 2.74-1.12 2.71-2.14 4.32c-2.64 4.46-5.84 7.42-9.6 8.89s-7.38 1.55-10.86.25c-7-2.5-9.21-7.88-6.64-16.17 2.29-7.59 6.68-12.02 13.18-13.32 2.5-.46 4.68-.11 6.57 1.09s2.81 2.92 2.71 5.17c-.18 2.57-1.51 5.03-4.01 7.38s-5.1 3.52-7.8 3.52c-1.58.18-3.2-.28-4.85-1.37-.81 3.13.14 5.77 2.85 7.91 1.2.95 2.71 1.48 4.5 1.58s3.83-.49 6.08-1.76 4.25-3.23 5.98-5.87c.28-.42.6-.95.95-1.58s.63-1.12.84-1.48.46-.7.7-1.05.49-.63.7-.81.42-.25.67-.25l-.18-.04Zm-13.29-7.8c-2.5.63-4.68 2.25-6.54 4.82-.91 1.44-.74 2.36.49 2.74.95.25 2 .04 3.13-.63s2.11-1.62 2.95-2.85c.63-.74.95-1.58.98-2.53s-.32-1.48-1.05-1.58l.04.04Z"></path><path class="d" d="M1253.96 438.29c1.3 0 2.36.46 3.2 1.37s1.3 2.14 1.41 3.73c.11 1.93-.63 4.01-2.18 6.26s-3.09 3.38-4.61 3.38c-.6 0-1.02-.21-1.3-.63s-.39-.91-.28-1.44c.11-.39.21-.88.35-1.51s.25-1.12.32-1.48.14-.77.25-1.27.18-.88.21-1.16.04-.56 0-.81-.14-.42-.28-.53-.32-.18-.56-.18c-1.16 0-2.39.7-3.73 2.14s-2.53 3.55-3.59 6.36c-.18.81-.42 1.93-.77 3.41s-.6 2.6-.77 3.41-.42 1.76-.77 2.88-.67 2-.95 2.64-.63 1.27-1.02 1.9-.81 1.09-1.3 1.37-1.05.42-1.69.42c-.74 0-1.09-.74-1.09-2.21-.04-.88-.04-1.83.04-2.85s.25-2.32.49-3.94.46-2.99.63-4.08.49-2.95.95-5.55.81-4.64 1.05-6.12c0-.14.04-.42.11-.84s.14-.7.18-.88.11-.42.21-.74.21-.56.32-.74.21-.39.35-.6.32-.39.53-.49.46-.21.74-.28.63-.11 1.02-.11c.46 0 .98-.07 1.58-.18s1.09-.21 1.44-.32.74-.18 1.16-.21.7.04.81.21.21.49.32.95.04 1.12-.21 2c-.04.18-.11.6-.21 1.23s-.21 1.09-.32 1.37c.95-1.23 1.72-2.18 2.29-2.81s1.41-1.34 2.5-2.07 2.18-1.12 3.23-1.12l-.04.11Zm33.96 12.17c.42 0 .7.28.81.84s-.04 1.48-.46 2.74-1.12 2.71-2.14 4.32c-2.64 4.46-5.84 7.42-9.6 8.89s-7.38 1.55-10.86.25c-7-2.5-9.21-7.88-6.64-16.17 2.29-7.59 6.68-12.02 13.18-13.32 2.5-.46 4.68-.11 6.57 1.09s2.81 2.92 2.71 5.17c-.18 2.57-1.51 5.03-4.01 7.38s-5.1 3.52-7.8 3.52c-1.58.18-3.2-.28-4.85-1.37-.81 3.13.14 5.77 2.85 7.91 1.2.95 2.71 1.48 4.5 1.58s3.83-.49 6.08-1.76 4.25-3.23 5.98-5.87c.28-.42.6-.95.95-1.58s.63-1.12.84-1.48.46-.7.7-1.05.49-.63.7-.81.42-.25.67-.25l-.18-.04Zm-13.29-7.8c-2.5.63-4.68 2.25-6.54 4.82-.91 1.44-.74 2.36.49 2.74.95.25 2 .04 3.13-.63s2.11-1.62 2.95-2.85c.63-.74.95-1.58.98-2.53s-.32-1.48-1.05-1.58l.04.04Zm21.45 20.17c1.05 2.21.7 4.46-1.09 6.75s-3.59 3.62-5.41 4.01c-.81.14-1.2-.04-1.2-.49s.32-.88.91-1.23c.46-.25.91-.67 1.37-1.23s.81-1.09 1.05-1.55.35-.7.32-.7c-1.23 0-2.07-.39-2.53-1.12s-.6-1.62-.46-2.64c.11-.91.56-1.76 1.37-2.5s1.72-1.12 2.78-1.12c1.34 0 2.36.6 3.02 1.79l-.14.04Zm63.45-58.22c1.16-.14 2.18.14 3.06.88s1.23 1.44 1.09 2.11c-.11.95-.49 2-1.16 3.16s-1.55 2.53-2.64 4.11-1.93 2.95-2.57 4.15c-1.86 3.66-3.83 8.19-5.91 13.64s-3.87 10.44-5.41 14.98-3.16 8.89-4.85 13.08-3.41 7.42-5.17 9.74-3.52 3.34-5.31 3.09c-6.96-.95-10.58-7.77-10.86-20.43-.04-3.16.11-7.14.46-11.88s.74-9 1.2-12.76.91-7.38 1.37-10.9.7-5.48.77-5.87c0-.11.04-.42.07-.91s.07-.81.07-.91.04-.35.11-.74.14-.63.21-.74.18-.32.35-.6.35-.46.56-.56.46-.18.7-.25.56-.11.95-.11c.63 0 1.48-.11 2.5-.28s1.79-.28 2.29-.32.95.21 1.37.7.63 1.37.63 2.6c0 .04-.46 2.6-1.37 7.7s-1.9 11.21-2.95 18.32-1.69 12.9-1.93 17.44c-.53 8.4 1.05 12.9 4.75 13.5.91-.11 2.25-2.95 4.01-8.54s4.08-12.9 6.96-21.9 5.77-16.42 8.65-22.25c1.16-2.21 2.46-4.29 3.9-6.19s2.78-2.95 4.01-3.13l.11.07Zm19.87 45.85c.42 0 .7.28.81.84s-.04 1.48-.46 2.74-1.12 2.71-2.14 4.32c-2.64 4.46-5.84 7.42-9.6 8.89s-7.38 1.55-10.86.25c-7-2.5-9.21-7.88-6.64-16.17 2.29-7.59 6.68-12.02 13.18-13.32 2.5-.46 4.68-.11 6.57 1.09s2.81 2.92 2.71 5.17c-.18 2.57-1.51 5.03-4.01 7.38s-5.1 3.52-7.8 3.52c-1.58.18-3.2-.28-4.85-1.37-.81 3.13.14 5.77 2.85 7.91 1.2.95 2.71 1.48 4.5 1.58s3.83-.49 6.08-1.76 4.25-3.23 5.98-5.87c.28-.42.6-.95.95-1.58s.63-1.12.84-1.48.46-.7.7-1.05.49-.63.7-.81.42-.25.67-.25l-.18-.04Zm-13.29-7.8c-2.5.63-4.68 2.25-6.54 4.82-.91 1.44-.74 2.36.49 2.74.95.25 2 .04 3.13-.63s2.11-1.62 2.95-2.85c.63-.74.95-1.58.98-2.53s-.32-1.48-1.05-1.58l.04.04Z"></path><path class="d" d="M1395.85 438.29c1.3 0 2.36.46 3.2 1.37s1.3 2.14 1.41 3.73c.11 1.93-.63 4.01-2.18 6.26s-3.09 3.38-4.61 3.38c-.6 0-1.02-.21-1.3-.63s-.39-.91-.28-1.44c.11-.39.21-.88.35-1.51s.25-1.12.32-1.48.14-.77.25-1.27.18-.88.21-1.16.04-.56 0-.81-.14-.42-.28-.53-.32-.18-.56-.18c-1.16 0-2.39.7-3.73 2.14s-2.53 3.55-3.59 6.36c-.18.81-.42 1.93-.77 3.41s-.6 2.6-.77 3.41-.42 1.76-.77 2.88-.67 2-.95 2.64-.63 1.27-1.02 1.9-.81 1.09-1.3 1.37-1.05.42-1.69.42c-.74 0-1.09-.74-1.09-2.21-.04-.88-.04-1.83.04-2.85s.25-2.32.49-3.94.46-2.99.63-4.08.49-2.95.95-5.55.81-4.64 1.05-6.12c0-.14.04-.42.11-.84s.14-.7.18-.88.11-.42.21-.74.21-.56.32-.74.21-.39.35-.6.32-.39.53-.49.46-.21.74-.28.63-.11 1.02-.11c.46 0 .98-.07 1.58-.18s1.09-.21 1.44-.32.74-.18 1.16-.21.7.04.81.21.21.49.32.95.04 1.12-.21 2c-.04.18-.11.6-.21 1.23s-.21 1.09-.32 1.37c.95-1.23 1.72-2.18 2.29-2.81s1.41-1.34 2.5-2.07 2.18-1.12 3.23-1.12l-.04.11Zm52.49 16.77c.63-.81 1.2-1.09 1.65-.81s.39.95-.25 2.04c-.11.25-.39.98-.88 2.21s-.98 2.36-1.48 3.38-1.12 2.11-1.9 3.3-1.69 2.11-2.74 2.78-2.18.98-3.41.98c-2.6 0-4.54-.77-5.77-2.32s-1.58-3.55-1.05-5.98c.14-.67.42-1.83.84-3.45s.77-3.02 1.02-4.22.49-2.43.7-3.69.21-2.25.04-2.99-.53-1.09-1.09-1.09c-.77 0-3.2 3.45-7.28 10.34s-6.61 10.65-7.63 11.29l-.49.28c-.46.46-.88.7-1.23.74-.91.25-1.34-.98-1.3-3.66 0-1.02.07-1.93.21-2.74.11-.42.39-1.58.88-3.45s.84-3.38 1.09-4.5.49-2.43.74-3.9.28-2.6.11-3.34-.53-1.12-1.05-1.12-1.51 1.16-2.99 3.48-3.2 5.27-5.2 8.86-3.48 6.08-4.43 7.52c-1.02 2.43-2.64 3.66-4.85 3.66-.42 0-.7-.25-.84-.74s-.14-1.23-.04-2.18.28-1.93.49-2.95.46-2.29.7-3.76.46-2.81.6-3.97c.14-1.23.35-2.95.6-5.13s.42-3.59.53-4.25c.04-.14.11-.6.18-1.41s.14-1.37.25-1.72.28-.77.49-1.3.53-.91.91-1.12.84-.32 1.37-.32c.32 0 .74 0 1.27-.04s.91-.07 1.16-.11.6-.04 1.02 0 .7.14.81.28.28.35.53.63.32.67.21 1.16-.18 1.05-.21 1.72c-.42 2.07-1.09 4.78-2 8.16 1.69-3.13 3.52-5.91 5.52-8.33s3.87-3.87 5.59-4.32c3.2-.63 5.27-.07 6.22 1.69s1.2 4.25.7 7.52c3.62-5.62 6.64-8.68 9.07-9.21 4.18-.88 6.54.53 7.07 4.18s.14 7.17-1.2 10.51c-.04.28-.07.49-.11.67-1.3 5.59-1.93 8.51-1.93 8.75.25.81.7 1.27 1.37 1.37.63 0 1.48-.63 2.5-1.93s2.11-2.88 3.23-4.75 1.76-2.85 1.86-2.95l-.18.25Z"></path><path class="d" d="M1482.97 439.87c.67-.28.84-.04.53.77-.14.32-.39.81-.7 1.48-.18.32-.28.53-.28.63-1.37 2.85-4.25 5.41-8.65 7.7 0 4.36-1.65 8.54-4.99 12.52s-7.24 5.98-11.71 5.98c-2.57 0-4.64-.74-6.26-2.21s-2.64-3.13-3.09-4.96-.6-3.66-.42-5.48c.32-2.71 1.2-5.45 2.6-8.19s3.41-5.17 6.01-7.24 5.41-3.09 8.44-3.09c3.34 0 5.84 1.51 7.49 4.54.88.74 1.41 1.83 1.58 3.27 1.37-.42 3.23-1.44 5.55-3.09s3.59-2.53 3.83-2.64l.07.04Zm-23.87 23.77c2.25 0 4.22-1.3 5.94-3.87s2.92-5.2 3.59-7.91c-1.44-.11-2.5-1.02-3.2-2.74s-.63-3.34.21-4.85c-.46-.46-1.3-.7-2.5-.74-1.72 0-3.41 1.12-5.1 3.38s-2.85 5.13-3.52 8.61c-.42 2.64-.11 4.64.91 5.98s2.29 2 3.76 2l-.11.14Z"></path><path class="d" d="M1511.3 454.85c.63-.81 1.2-1.09 1.69-.81s.42.95-.21 2.04c-.18.28-.49.98-.95 2.14s-.95 2.29-1.48 3.38-1.16 2.18-1.9 3.3-1.62 2.04-2.67 2.74-2.21 1.05-3.48 1.05c-2.6 0-4.54-.77-5.77-2.32s-1.58-3.55-1.05-5.98c.14-.77.42-1.93.81-3.45s.74-2.88 1.02-4.15.53-2.53.74-3.76.21-2.21 0-2.95-.6-1.09-1.16-1.09c-.63 0-1.86 1.51-3.69 4.5s-3.76 6.36-5.8 10.09-3.38 6.05-4.04 6.96-1.34 1.51-2 1.76-1.58.39-2.74.39c-.39 0-.7-.21-.95-.63s-.35-.95-.32-1.62c.11-2.25.56-5.8 1.37-10.62s1.55-8.58 2.21-11.29c.04-.18.14-.74.32-1.69s.35-1.62.49-1.97.42-.74.84-1.16.98-.63 1.65-.63c.32 0 .77 0 1.34-.04s.98-.07 1.23-.11.6-.04 1.02 0 .7.14.81.28.28.35.53.63.32.67.21 1.16-.18 1.05-.21 1.72c-.28 1.34-.67 2.78-1.16 4.32s-1.05 3.27-1.69 5.13-1.09 3.34-1.41 4.39c1.09-2.29 2.21-4.5 3.38-6.64s2.74-4.46 4.75-6.93 3.83-3.87 5.48-4.22c1.16 0 2.21-.07 3.16-.18s1.69.18 2.18.84.91 1.2 1.27 1.62.56 1.16.6 2.25.07 1.97.07 2.64-.11 1.62-.32 2.81-.39 2.11-.56 2.78-.39 1.55-.63 2.64c-.28 1.23-.67 2.78-1.16 4.61-.77 2.99-1.05 4.68-.81 5.06.18.28.6.42 1.27.42s1.51-.63 2.53-1.9 2.11-2.81 3.23-4.64 1.72-2.81 1.83-2.95l.14.04Z"></path><path class="d" d="M1517.21 457.45c-.42 1.69-.56 3.16-.42 4.46s.84 1.93 2.07 1.93c2.25 0 4.82-2.25 7.7-6.79 2.29-3.41 3.9-5.1 4.85-5.1 1.16 0 .25 2.64-2.71 7.91-3.3 5.77-7.17 8.65-11.6 8.65-2.88 0-4.75-1.48-5.62-4.39-.42-1.3-.6-2.78-.56-4.43 0-.63.49-4.15 1.51-10.58.77-5.27 1.55-9.98 2.36-14.17l-5.31.42c-.63.04-1.16-.21-1.58-.77s-.74-1.23-.98-2c-.77-1.23-.49-1.86.88-1.86l7.84-.14c.6-3.27 1.23-6.79 1.9-10.55s1.2-6.79 1.62-9.07.67-3.52.7-3.66c.46-2.57 1.62-3.83 3.45-3.8.42 0 .98-.07 1.72-.18s1.3-.21 1.69-.28.81-.04 1.3.07.74.35.74.74-.04.98-.14 1.76c-.74 2.21-2.57 10.44-5.48 24.68.74-.04 1.72-.07 2.95-.07 3.41-.18 5.84-.21 7.24-.11s2.29.49 2.6 1.2c.18.39.04.74-.42 1.05s-1.23.6-2.32.84-2.36.42-3.83.56-3.23.28-5.31.42l-1.9.14c-.39 1.79-.91 4.22-1.62 7.28s-1.34 5.87-1.9 8.44-1.05 4.99-1.48 7.28l.07.11Z"></path><path class="e" d="M912.5 404.23c0-1.46-1.28-2.63-2.85-2.63s-2.85 1.18-2.85 2.63v6.89c-1.34-.89-2.49-1.92-4.23-3.5a2.855 2.855 0 0 0-4.39 3.65c1.79 1.95 5.32 5.3 8.61 6.75v35.64c-3.29 1.44-6.82 4.79-8.61 6.75a2.846 2.846 0 0 0 .37 4.02c1.21 1.01 3.01.84 4.02-.37 1.74-1.58 2.89-2.61 4.23-3.5v6.89c0 1.46 1.28 2.63 2.85 2.63s2.85-1.18 2.85-2.63v-6.89c1.34.89 2.48 1.92 4.23 3.5a2.855 2.855 0 0 0 4.02.37 2.864 2.864 0 0 0 .37-4.02c-1.79-1.95-5.32-5.3-8.61-6.75v-35.64c3.29-1.44 6.82-4.79 8.61-6.75a2.855 2.855 0 0 0-4.39-3.65c-1.75 1.58-2.89 2.61-4.23 3.5v-6.89Z"></path><path class="e" d="M938.45 422.51c1.26-.73 1.64-2.42.86-3.79-.79-1.36-2.45-1.88-3.71-1.15l-5.96 3.44c.1-1.61.42-3.11.92-5.41.55-1.48-.21-3.12-1.69-3.66s-3.12.22-3.66 1.7c-.8 2.53-1.94 7.26-1.54 10.83l-30.86 17.82c-2.9-2.13-7.56-3.51-10.15-4.08a2.85 2.85 0 0 0-3.3 2.33c-.27 1.55.77 3.03 2.33 3.3 2.24.72 3.7 1.19 5.15 1.91l-5.96 3.44c-1.26.73-1.64 2.42-.86 3.79.79 1.37 2.45 1.88 3.71 1.16l5.96-3.44c-.1 1.61-.42 3.11-.92 5.41-.54 1.48.21 3.12 1.7 3.66 1.48.54 3.12-.22 3.66-1.7.8-2.53 1.93-7.26 1.54-10.84l30.86-17.82c2.9 2.13 7.56 3.51 10.15 4.08 1.55.27 3.03-.77 3.3-2.33.27-1.55-.77-3.03-2.33-3.3-2.24-.72-3.7-1.19-5.15-1.91l5.96-3.44Z"></path><path class="e" d="M935.6 454.12c1.26.73 2.92.21 3.71-1.16.79-1.36.41-3.06-.85-3.79l-5.97-3.44c1.45-.72 2.91-1.19 5.15-1.91a2.864 2.864 0 0 0 2.33-3.3 2.862 2.862 0 0 0-3.3-2.33c-2.59.57-7.25 1.95-10.15 4.08l-30.86-17.82c.4-3.57-.74-8.3-1.54-10.83-.55-1.48-2.19-2.24-3.66-1.7-1.48.55-2.24 2.19-1.69 3.66.5 2.3.82 3.8.92 5.41l-5.96-3.44c-1.26-.73-2.92-.21-3.71 1.15-.79 1.37-.41 3.06.86 3.79l5.96 3.44c-1.44.72-2.91 1.19-5.15 1.91a2.864 2.864 0 0 0-2.33 3.3 2.862 2.862 0 0 0 3.3 2.33c2.59-.57 7.25-1.95 10.15-4.08l30.86 17.82c-.39 3.58.74 8.3 1.54 10.84a2.854 2.854 0 0 0 3.66 1.7c1.48-.55 2.24-2.19 1.69-3.66-.5-2.3-.82-3.8-.92-5.41l5.97 3.44Z"></path><g style="clip-path:url(#b);fill:none"><path class="d" style="fill:none;clip-path:url(#c)" d="M49.55 0h1820.89v474.19H49.55z"></path></g><path class="d" d="m98.87 276.57 91.45-49.63 1.49 56.63-57.85 2.84-30.35-1.9-4.74-7.94zm141.76-76.69 16.62-9.26 34.08 26.99v66.9h-50.7v-84.63zm65.1 25.99 35.93-9.64 33.84 14.63v54.76h-6.21l-63.56-59.75zm176.29 51.06 110.64-33.15v41.39H481.19l.83-8.24zm197-59.01 8.79-2.64 72.25 22.84 39.66-38.01 16.24 7.73v76.67h-43.72l-3.81-14.22h-5.69l-35.09 13.28h-24.66l-23.97-62.14v-3.51zm217.87 28.49 44.14 21.03 85.29-33.37v50.44H899.35l-2.46-38.1zm170.32-28.34 4.7-1.84 25.63 21.89 52.14-18.1v22.77h13.27l10.44-10.44 3.79-8.53 2.84-5.69 1.9-8.54 25.61-9.48 64.63 37.3-40.92 42.36-38.4 4.74h-75.19l-16.34-8.53-33.19-43.63-.91-14.28zm234.3 36.29 22.67 13.08 82.51-45.52 15.56 10.44 1.53 52.15H1320.2l-23.52-30.34 4.83.19zm180.88 18.31 7.76 5.21 42.94-31.45 21.02 38.08h-74.09l2.37-11.84zm71.1-41.17 42.87-31.39 20.9 23.17v62.34h-6.21l-57.56-54.12zm127.21 9.56 5.58-2.94 46.65 42.6 64.49-58.8 15.6 18.44v43.33h-134.93l2.61-42.63z"></path><path class="j" d="M208.42 231.89c7.52 9.84 11.35 21.19 11.35 34.04 0 16.56-6.02 30.45-18.06 41.68s-26.86 16.9-44.34 16.9c-13.89 0-26.28-3.59-37.16-10.77-10.88-7.18-22-17.6-33.23-31.37L60.01 246.6l43.41-29.87-13.31-18.52c-11.92-11.92-17.83-25.35-17.83-40.29 0-16.32 6.14-30.1 18.29-41.21 12.16-11.11 26.86-16.67 44.11-16.67 9.15 0 18.64 2.08 28.48 6.25s18.64 9.96 26.51 17.37l25.12 35.54-32.99 35.08c2.43 3.01 4.63 6.37 6.6 9.96l20.03 27.67Zm-58.69-57.77c-.35-.12-1.97-1.04-4.86-2.66-2.89-1.62-5.21-3.01-6.83-4.17s-3.59-2.66-5.9-4.52c-2.32-1.85-4.05-3.7-5.21-5.67-1.16-1.97-1.74-3.94-1.74-5.9 0-3.01.93-5.44 2.78-7.29 1.85-1.85 4.17-2.78 7.06-2.78 1.04 0 2.2.12 3.36.46s2.32.81 3.47 1.39c1.16.58 2.2 1.16 3.01 1.74.81.58 1.85 1.39 3.01 2.43 1.16 1.04 2.08 1.74 2.66 2.2.58.46 1.39 1.27 2.55 2.43l1.97 1.97 28.71-30.56c-13.43-12.62-29.52-18.99-48.39-18.99-15.86 0-29.41 5.09-40.75 15.28s-17.02 22.81-17.02 37.86c0 19.8 11.69 36.58 35.08 50.48l5.79 3.13c3.59 2.2 6.37 4.05 8.34 5.44 1.97 1.39 4.51 3.24 7.52 5.67 3.01 2.43 5.33 4.86 6.83 7.41 1.51 2.55 2.32 4.98 2.32 7.41 0 3.36-1.27 6.02-3.82 7.99s-5.56 2.89-9.03 2.89c-2.66 0-5.21-.58-7.64-1.74-2.43-1.16-4.63-2.89-6.71-5.21-2.08-2.31-3.7-4.28-4.98-6.02-1.27-1.74-2.78-4.05-4.51-6.95-1.74-2.89-2.89-4.63-3.47-5.21l-35.77 24.89c9.61 12.16 19.45 21.42 29.52 27.67s21.65 9.38 34.73 9.38c16.44 0 30.33-5.33 41.68-15.86 11.35-10.53 17.02-23.5 17.02-38.9 0-12.16-3.82-22.92-11.35-32.3-7.52-9.38-17.13-17.37-28.83-23.85l-.58.46Zm-20.49 69.46c-6.6-4.75-12.5-10.07-17.6-15.98l8.57 12.04c2.66 2.55 5.67 3.82 9.03 3.82v.12Zm251-139.84 25.35 36.24V326.6h-10.42l-73.74-69.23v64.48h-58.81L235.88 287V102.35h13.66l70.5 66.34v-64.95h60.2Zm-55.45 4.75v70.85l-77.1-72.24h-7.06v175.16h50.71v-69.92l79.42 74.67h4.75V108.48H324.8Zm193.32-7.18c15.17 0 29.41 3.59 42.72 10.77 13.31 7.18 24.31 16.9 32.99 29.17l25.35 35.19c11.92 16.09 17.83 34.15 17.83 54.18 0 25.93-8.8 47.93-26.51 65.87s-39.82 26.97-66.34 26.97c-14.93 0-29.06-3.47-42.37-10.3s-24.31-16.21-32.99-28.13l-26.86-35.43c-11.92-16.09-17.83-34.27-17.71-54.53 0-25.01 9.15-46.89 27.44-65.64s40.4-28.13 66.34-28.13h.12Zm-.12 4.75c-16.32 0-31.37 4.17-45.15 12.5-13.78 8.34-24.54 19.33-32.3 32.99-7.76 13.66-11.58 28.13-11.58 43.41 0 24.66 8.91 45.61 26.63 62.98 17.71 17.37 38.44 26.05 62.17 26.05 25.47 0 46.65-8.57 63.56-25.82 16.9-17.25 25.35-38.32 25.35-63.21s-8.91-45.61-26.74-62.98c-17.83-17.37-38.55-26.05-62.28-26.05l.35.12Zm-.35 141.01c-10.77 0-19.1-5.44-25.01-16.32-5.9-10.88-8.91-22.81-8.91-35.77s3.13-24.43 9.26-35.42S507.33 143 517.64 143c7.29 0 13.66 2.89 18.99 8.8 5.33 5.9 9.15 12.73 11.46 20.38 2.32 7.64 3.47 15.28 3.47 22.81 0 12.85-3.01 24.77-9.15 35.77s-14.36 16.44-24.77 16.44v-.12Zm-2.78-4.86c6.83.93 12.73-1.16 17.83-6.14s8.8-11.11 11.11-18.41 3.47-14.82 3.47-22.58c0-3.36-.46-7.52-1.27-12.5-6.83 0-12.73 2.55-17.83 7.76-5.09 5.21-8.68 11.35-10.77 18.41-2.08 7.06-3.13 14.36-3.13 21.88 0 5.21.23 9.03.69 11.58h-.12Zm348.27-138.47 24.89 36.24-73.17 181.87h-18.06L770.28 287l-5.21-12.39-18.75 47.23h-18.06l-26.51-34.85-73.98-183.26h64.95l25.58 36.24 5.67 14.7 20.61-50.94h16.67l25.58 36.24 5.67 14.7 20.61-50.94h50.01Zm-46.65 4.75-29.17 72.01-29.41-72.01h-9.96l-29.17 72.01-29.41-72.01h-54.53l70.16 173.77h12.39l28.02-69.69 28.13 69.69h12.39l70.16-173.77h-39.59Zm80.41 178.97V104.2h65.18c7.53 0 14.7 1.85 21.53 5.56s12.62 8.68 17.37 15.05c.46.46 1.04 1.27 1.85 2.43.81 1.16 3.36 4.86 7.76 11s9.72 13.43 15.86 22 9.26 17.83 9.26 27.78c0 5.67-1.16 11.69-3.59 17.94l12.85 17.37c8.22 11.23 12.27 23.39 12.27 36.47 0 16.9-6.02 31.37-18.06 43.41-12.04 12.04-26.63 18.41-43.88 18.99h-71.66l-26.74-34.73ZM999.23 174.7c4.05-7.06 6.14-14.47 6.25-22.23 0-11.92-4.4-22.23-13.08-30.79s-18.75-12.85-30.21-12.85h-60.43V282.6h67.49c15.86-.58 29.52-6.6 40.87-17.94 11.35-11.35 17.02-24.89 17.02-40.52 0-9.61-2.43-18.75-7.29-27.44s-11.69-16.09-20.61-22.11v.12Zm-41.21-32.3c5.21 0 7.87 4.75 7.87 14.24 0 3.94-.69 7.18-2.08 9.84-1.39 2.66-3.24 3.94-5.67 3.94h-5.9v-28.13l5.79.12Zm-5.79 103.27v-51.05h6.83c4.75 0 8.8 2.43 12.27 7.29 3.47 4.86 5.21 10.88 5.21 18.06s-1.62 13.2-4.86 18.18-7.06 7.41-11.46 7.41l-7.99.12Zm201.24-144.36c15.17 0 29.4 3.59 42.72 10.77s24.31 16.9 32.99 29.17l25.35 35.19c11.92 16.09 17.83 34.15 17.83 54.18 0 25.93-8.8 47.93-26.51 65.87s-39.82 26.97-66.33 26.97c-14.93 0-29.06-3.47-42.37-10.3-13.31-6.83-24.31-16.21-32.99-28.13l-26.86-35.43c-11.92-16.09-17.83-34.27-17.71-54.53 0-25.01 9.15-46.89 27.44-65.64s40.4-28.13 66.33-28.13h.12Zm-.12 4.75c-16.32 0-31.37 4.17-45.15 12.5-13.78 8.34-24.54 19.33-32.3 32.99-7.76 13.66-11.58 28.13-11.58 43.41 0 24.66 8.92 45.61 26.63 62.98 17.71 17.37 38.44 26.05 62.17 26.05 25.47 0 46.65-8.57 63.56-25.82 16.9-17.25 25.35-38.32 25.35-63.21s-8.91-45.61-26.74-62.98c-17.83-17.37-38.55-26.05-62.28-26.05l.35.12Zm-.35 141.01c-10.77 0-19.1-5.44-25.01-16.32s-8.91-22.81-8.91-35.77 3.13-24.43 9.26-35.42S1142.7 143 1153 143c7.29 0 13.66 2.89 18.99 8.8 5.33 5.9 9.15 12.73 11.46 20.38s3.47 15.28 3.47 22.81c0 12.85-3.01 24.77-9.15 35.77s-14.35 16.44-24.77 16.44v-.12Zm-2.78-4.86c6.83.93 12.73-1.16 17.83-6.14 5.09-4.98 8.8-11.11 11.11-18.41s3.47-14.82 3.47-22.58c0-3.36-.46-7.52-1.27-12.5-6.83 0-12.73 2.55-17.83 7.76-5.09 5.21-8.68 11.35-10.77 18.41-2.08 7.06-3.12 14.36-3.12 21.88 0 5.21.23 9.03.69 11.58h-.12Zm174.76 50.35c-17.83-23.27-26.86-35.08-26.97-35.43-7.29-10.3-11.46-21.53-12.5-33.69v-119.7h60.2l25.47 36.24v94.35c2.2-2.66 3.47-5.79 3.7-9.38V103.86h53.37l25.35 36.24v119.01c-.93 16.79-8.33 31.6-22.11 44.46-13.78 12.85-29.52 19.22-47.23 19.22-11.69 0-22.81-2.66-33.34-7.99-10.54-5.32-19.22-12.73-26.05-22.11l.12-.12Zm54.64-183.84v116.35c-.12 5.21-2.08 9.72-5.79 13.43-3.7 3.7-8.22 5.56-13.66 5.56s-9.72-1.85-13.43-5.56c-3.7-3.7-5.67-8.22-5.79-13.43V108.72h-50.71v114.73c1.27 16.9 8.68 31.03 22.11 42.49s28.71 17.13 45.73 17.13 31.37-6.02 44.46-18.06c13.08-12.04 20.03-25.93 20.95-41.79V108.49l-43.88.23Zm242.38-4.98 25.35 36.24V326.6h-10.42l-73.74-69.23v64.48h-58.81L1477.64 287V102.35h13.66l70.5 66.34v-64.95h60.2Zm-55.45 4.75v70.85l-77.1-72.24h-7.06v175.16h50.71v-69.92l79.42 74.67h4.75V108.48h-50.71Zm172.61-4.52c14.01.35 27.21 3.59 39.48 9.72s22.81 14.47 31.49 25.01c.81 1.04 1.97 2.55 3.47 4.63 1.5 2.08 4.51 6.25 8.91 12.5s9.84 13.78 16.32 22.46c11.58 15.63 17.37 33.23 17.25 52.79 0 15.63-3.94 30.45-11.92 44.34-7.99 13.89-18.99 25.12-32.99 33.69-14.01 8.57-29.29 12.85-45.84 12.85h-62.63l-26.74-34.85V103.85l63.21.12Zm-58.46 4.63v173.77h58.46c15.63 0 30.22-4.05 43.64-12.16 13.43-8.1 23.96-18.87 31.61-32.18 7.64-13.31 11.46-27.44 11.46-42.49 0-23.96-8.57-44.34-25.7-61.01-17.13-16.67-37.51-25.35-61.24-25.93h-58.23Zm50.47 138V144.38h5.21c9.96 0 18.41 5.09 25.35 15.4 6.95 10.3 10.42 22.23 10.42 35.77s-3.47 26.05-10.54 36-15.51 14.93-25.35 14.93l-5.09.12Zm30.33-23.39c4.05-8.22 6.14-17.37 6.14-27.55 0-4.05-.35-7.76-.93-11.11-2.2-.35-3.94-.46-5.21-.46v39.13Z"></path><path class="j" d="m369.29 285.62 1.46 1.38h4.75v-1.38h-6.21zm1241.76 0 1.46 1.38h4.75v-1.38h-6.21z"></path>
		</svg>
